<?xml version="1.0" encoding="UTF-8" standalone="no"?>
<!-- Created with Inkscape (http://www.inkscape.org/) -->

<svg
   xmlns:dc="http://purl.org/dc/elements/1.1/"
   xmlns:cc="http://creativecommons.org/ns#"
   xmlns:rdf="http://www.w3.org/1999/02/22-rdf-syntax-ns#"
   xmlns:svg="http://www.w3.org/2000/svg"
   xmlns="http://www.w3.org/2000/svg"
   xmlns:xlink="http://www.w3.org/1999/xlink"
   xmlns:sodipodi="http://sodipodi.sourceforge.net/DTD/sodipodi-0.dtd"
   xmlns:inkscape="http://www.inkscape.org/namespaces/inkscape"
   id="svg2"
   sodipodi:docname="GSODR-hex.svg"
   viewBox="0 0 248.0315 286.41087"
   version="1.1"
   inkscape:version="0.92.2 5c3e80d, 2017-08-06"
   width="7cm"
   height="8.0831518cm"
   inkscape:export-filename="/Users/asparks/Development/nasapower/man/figures/nasapower-hex.png"
   inkscape:export-xdpi="90.709999"
   inkscape:export-ydpi="90.709999">
  <title
     id="title3413">nasapower</title>
  <defs
     id="defs4">
    <linearGradient
       inkscape:collect="always"
       id="linearGradient4187">
      <stop
         style="stop-color:#e2d20e;stop-opacity:1;"
         offset="0"
         id="stop4189" />
      <stop
         style="stop-color:#ef6e00;stop-opacity:1"
         offset="1"
         id="stop4191" />
    </linearGradient>
    <style
       id="style22186">.cls-1{fill:none;}.cls-2{fill:#ba6f38;}.cls-3{clip-path:url(#clip-path);}.cls-4{fill:#ed7d15;}.cls-5{opacity:0.25;fill:url(#linear-gradient);}.cls-6{fill:#ac5d12;}.cls-7{clip-path:url(#clip-path-2);}.cls-8{fill:#36a85d;}.cls-9{fill:#e6b35a;}.cls-10{fill:#fff;}.cls-11{opacity:0.94;}</style>
    <clipPath
       id="clip-path">
      <polygon
         id="polygon22189"
         points="728.2,636.6 369.5,845 2.8,636.6 2.8,214.5 369.5,7.4 369.5,7.4 728.2,214.5 "
         class="cls-1"
         style="fill:none" />
    </clipPath>
    <radialGradient
       inkscape:collect="always"
       xlink:href="#linearGradient4187"
       id="radialGradient4197"
       cx="193.67343"
       cy="518.56464"
       fx="193.67343"
       fy="518.56464"
       r="362.70001"
       gradientTransform="matrix(0.99999992,0,0,1.1546733,1.6295682e-5,-65.921754)"
       gradientUnits="userSpaceOnUse" />
    <radialGradient
       inkscape:collect="always"
       xlink:href="#linearGradient4187"
       id="radialGradient3409"
       gradientUnits="userSpaceOnUse"
       gradientTransform="matrix(0.99999992,0,0,1.1546733,1.6295682e-5,-65.921754)"
       cx="193.67343"
       cy="518.56464"
       fx="193.67343"
       fy="518.56464"
       r="362.70001" />
    <radialGradient
       inkscape:collect="always"
       xlink:href="#linearGradient4187"
       id="radialGradient3411"
       gradientUnits="userSpaceOnUse"
       gradientTransform="matrix(0.99999992,0,0,1.1546733,1.6295682e-5,-65.921754)"
       cx="193.67343"
       cy="518.56464"
       fx="193.67343"
       fy="518.56464"
       r="362.70001" />
  </defs>
  <sodipodi:namedview
     id="base"
     bordercolor="#666666"
     inkscape:pageshadow="2"
     inkscape:window-y="1"
     pagecolor="#ffffff"
     inkscape:window-height="1005"
     inkscape:window-maximized="1"
     inkscape:zoom="0.91656219"
     inkscape:window-x="0"
     showgrid="false"
     borderopacity="1.0"
     inkscape:current-layer="layer1"
     inkscape:cx="194.00164"
     inkscape:cy="152.75248"
     inkscape:window-width="1680"
     inkscape:pageopacity="0.0"
     inkscape:document-units="px"
     fit-margin-top="0"
     fit-margin-left="0"
     fit-margin-right="0"
     fit-margin-bottom="0"
     units="cm" />
  <g
     id="layer1"
     inkscape:label="Layer 1"
     inkscape:groupmode="layer"
     transform="translate(1837.828,64.466438)">
    <text
       xml:space="preserve"
       style="font-style:normal;font-weight:normal;line-height:0%;font-family:sans-serif;letter-spacing:0px;word-spacing:0px;fill:#000000;fill-opacity:1;stroke:none;stroke-width:1px;stroke-linecap:butt;stroke-linejoin:miter;stroke-opacity:1"
       x="-1128.9001"
       y="-11.74138"
       id="text5476"><tspan
         sodipodi:role="line"
         id="tspan5478"
         x="-1128.9001"
         y="-11.74138"
         style="font-size:40px;line-height:1.25"> </tspan></text>
    <g
       transform="matrix(0.72484839,1.2953625,-1.2953626,0.72484843,-671.26984,-964.12141)"
       id="g4147"
       style="fill:#004878;fill-opacity:1" />
    <g
       class="cls-3"
       id="g22203"
       clip-path="url(#clip-path)"
       transform="matrix(0.33754967,0,0,0.33754967,-1837.8617,-64.804002)"
       style="fill:url(#radialGradient4197);fill-opacity:1">
      <circle
         style="fill:url(#radialGradient3409);fill-opacity:1"
         class="cls-4"
         cx="365.5"
         cy="437.39999"
         r="442.10001"
         id="circle22205" />
      <ellipse
         style="opacity:0.25;fill:url(#radialGradient3411);fill-opacity:1"
         class="cls-5"
         cx="366.89999"
         cy="105.8"
         rx="315.20001"
         ry="234.60001"
         id="ellipse22207" />
    </g>
    <path
       style="fill:#3366cc;fill-opacity:1"
       inkscape:connector-curvature="0"
       class="cls-6"
       d="m -1599.6867,1.4232429 -93.7713,-54.1429669 -20.3542,-11.746729 -20.3543,11.746729 -93.7713,54.1429669 -9.8902,5.7045894 V 150.35016 l 9.8902,5.70459 94.919,54.81806 19.2066,11.07163 19.2066,-11.07163 94.9189,-54.81806 9.8902,-5.70459 V 7.1278323 Z m 0,143.5598771 -114.1255,65.88969 -114.1256,-65.88969 V 13.169971 l 114.1256,-65.889695 v 0 l 114.1255,65.889695 z"
       id="path22209" />
    <path
       style="fill:#e6b35a"
       inkscape:connector-curvature="0"
       class="cls-9"
       d="m -1727.483,153.89443 0.3038,-0.3038 h -0.1012 z"
       id="path22217" />
    <text
       xml:space="preserve"
       style="font-style:normal;font-weight:normal;line-height:0%;font-family:sans-serif;letter-spacing:0px;word-spacing:0px;fill:#4d4d4d;fill-opacity:1;stroke:none;stroke-width:1px;stroke-linecap:butt;stroke-linejoin:miter;stroke-opacity:1"
       x="-1568.1652"
       y="-687.54193"
       id="text4366"
       transform="rotate(-30.438288)"
       inkscape:transform-center-x="-10.083618"
       inkscape:transform-center-y="-14.085404"><tspan
         sodipodi:role="line"
         id="tspan4368"
         x="-1568.1652"
         y="-687.54193"
         style="font-style:normal;font-variant:normal;font-weight:normal;font-stretch:normal;font-size:33.75496674px;line-height:1.25;font-family:'Fira Code';-inkscape-font-specification:'Fira Code';fill:#4d4d4d;fill-opacity:1">GSODR</tspan></text>
    <g
       id="g4448"
       clip-path="none">
      <path
         sodipodi:sides="9"
         inkscape:rounded="0.1"
         sodipodi:cx="214.17128"
         sodipodi:cy="68.567673"
         inkscape:randomized="-0.092"
         transform="translate(-1915.2509,-63.382307)"
         sodipodi:arg2="1.144773"
         sodipodi:arg1="0.79570711"
         inkscape:flatsided="false"
         sodipodi:r1="44.382629"
         d="m 247.06959,101.72403 c -1.66758,1.48148 -21.79531,-13.541219 -23.99581,-12.809942 -2.2005,0.731277 -0.64026,27.504392 -2.87239,27.554682 -2.23213,0.0503 -13.47461,-22.337607 -15.43117,-23.1681 -1.95655,-0.830494 -11.19995,10.18388 -13.2221,9.10845 -2.02215,-1.07542 1.82621,-18.316369 0.65188,-20.172755 -1.17432,-1.856386 -23.2999,0.987099 -23.87741,-1.181349 -0.57751,-2.168449 22.54789,-15.416408 22.65481,-17.648832 0.10692,-2.232424 -19.65731,-14.956347 -18.51854,-16.880872 1.13877,-1.924525 24.15543,3.26867 25.84976,1.737305 1.69433,-1.531365 -1.50533,-22.803432 0.48445,-23.804182 1.98979,-1.000749 10.46971,14.960387 12.6647,14.617883 2.19498,-0.342504 14.15717,-13.455376 16.41745,-13.076002 2.26029,0.379374 -0.60104,21.23188 1.341,22.292367 1.94203,1.060486 22.27981,-10.11448 23.54308,-8.37394 1.26328,1.740541 -14.62729,23.728811 -13.7893,25.835038 0.838,2.106226 18.04771,2.099526 17.63268,4.235389 -0.41502,2.135864 -21.24973,6.925695 -21.92336,9.047746 -0.67363,2.12205 14.05784,21.205634 12.39027,22.687114 z"
         sodipodi:type="star"
         style="fill:#f5ff12"
         sodipodi:r2="25.545271"
         id="path4994" />
      <g
         id="g4444">
        <ellipse
           ry="25.540504"
           rx="30.435976"
           cy="2.9207823"
           cx="-1701.4042"
           id="path4996"
           style="fill:#ffff00;fill-opacity:1;stroke:#ffff00;stroke-width:6.15377045;stroke-miterlimit:0.5;stroke-opacity:1" />
        <path
           d="m -1654.6687,-5.449379 c -5.8,0 -10.76,3.021 -13.2,7.36 -0.97,-0.543 -2.05,-0.875 -3.2,-0.875 -3.46,0 -6.34,2.785 -7.23,6.566 -1.52,-0.6 -3.28,-0.972 -5.16,-0.972 -5.67,0 -10.27,3.102 -10.27,6.923 0,3.448 3.77,6.285 8.67,6.809 -0.22,0.372 -0.4,0.744 -0.4,1.135 0,3.658 10.03,6.631 22.38,6.631 12.35,0 22.37,-2.973 22.37,-6.631 0,-0.246 -0.16,-0.474 -0.25,-0.713 0.54,0.134 1.09,0.275 1.68,0.275 3.3,0 5.98,-2.246 5.98,-5.01 0,-2.763 -2.68,-4.993 -5.98,-4.993 -0.4,0 -0.76,0.13 -1.14,0.194 0.33,-1.105 0.56,-2.238 0.56,-3.437 0,-7.315 -6.63,-13.262 -14.81,-13.262 z"
           style="fill:#ffffff;stroke:#ffffff;stroke-width:6.15399981;stroke-linecap:round;stroke-linejoin:round;stroke-miterlimit:0.5;stroke-opacity:1"
           id="path4990"
           inkscape:connector-curvature="0" />
      </g>
    </g>
    <path
       id="path3882"
       sodipodi:nodetypes="ccccccccccccccccccccscccccccccccccccccccccccccccccccccccccccccccccccccsccccccccccccccccccccccccccccsccccccccccccccccccccccccccccccccccccccccccccccccccccccccccccccccccccccccccccc"
       style="fill:#838383;stroke-width:0.93656248"
       inkscape:connector-curvature="0"
       d="m -1730.9762,153.52025 c -18.2732,-2.43748 -34.3175,-11.88966 -45.339,-25.57939 h 19.8138 c 6.3879,11.54595 15.1021,20.97151 25.5271,24.60256 0.5873,0.21179 3.6483,1.4394 0,0.97664 z m 18.7398,-0.96241 c 10.2975,-3.57027 18.9288,-12.7953 25.3,-24.13709 0.2879,-0.49332 0.3191,-0.47949 0.932,-0.47949 h 18.2638 c 0.5546,-0.002 0.6086,0.29678 0.471,0.51078 -11.0178,13.42563 -26.9065,22.67793 -44.9718,25.0746 -2.7078,0.26258 -1.9618,-0.34321 0,-0.9687 z m -7.5801,-0.31641 c -0.4568,0 -0.8322,-0.38088 -0.8322,-0.85706 v -22.50934 c 0.024,-0.64758 0.2758,-0.91304 0.9408,-0.93414 h 29.9766 c 0.7894,0.007 0.4443,0.68593 0.3771,0.91365 -5.8377,10.11862 -13.8659,18.8352 -25.0895,22.4419 -1.6992,0.5459 -3.4765,0.81684 -5.2683,0.93657 -0.038,0.005 -0.063,0.009 -0.105,0.009 z m -3.6417,-0.0376 c -13.9212,-1.19562 -24.1137,-12.36077 -30.8777,-24.26259 h 30.9141 c 0.6591,0.0241 0.8693,0.33258 0.8994,0.96504 v 22.47843 c 0,0.46537 -0.3627,0.81949 -0.8194,0.81949 z m -55.0082,-27.06759 c -5.2267,-7.20489 -9.0982,-15.44298 -11.2911,-24.34875 -0.2788,-0.900813 0.061,-0.943593 0.7404,-0.943593 h 21.5475 c 0.9935,0.004 0.8084,0.265323 0.9444,0.921193 1.7426,8.23023 4.6476,16.68206 8.5563,24.38435 0.7664,1.03584 0.1644,0.9294 -0.135,0.91852 h -19.1515 c -0.6545,0.012 -0.8762,-0.47545 -1.2116,-0.93151 z m 22.5711,-0.0268 c -0.6937,-1.33386 -1.3437,-2.66453 -1.9527,-3.9879 -3.0504,-6.4782 -5.3584,-13.32353 -6.804,-20.32527 -0.2757,-1.042953 -0.037,-0.934803 0.4659,-0.951923 h 40.733 c 0.7377,0.0135 0.9559,0.15158 0.9315,0.942843 v 24.34406 c -0.016,0.60696 -0.3101,0.93502 -0.9305,0.93694 h -30.915 c -0.9738,0.005 -1.143,-0.22633 -1.528,-0.95829 z m 35.2467,0.012 v -24.35062 c 0.015,-0.825053 0.2943,-0.922763 0.932,-0.926043 h 40.9174 c 0.3824,0.0161 0.5478,0.14055 0.3669,0.938913 -0.7081,3.34015 -1.6447,6.64537 -2.8216,9.8901 -1.6374,4.78743 -3.6242,9.72807 -6.0452,14.46613 -0.3856,0.79577 -0.4738,0.92786 -1.0674,0.92903 h -31.3308 c -0.6079,0.001 -0.9208,-0.31743 -0.951,-0.94725 z m 35.4582,0.009 c 3.9134,-7.71681 6.8201,-16.18475 8.5595,-24.42836 0.1741,-0.884193 0.3633,-0.838483 0.7807,-0.856893 h 22.0842 c 0.681,-0.006 0.5331,0.199593 0.3563,0.935633 -2.1927,8.90839 -6.065,17.14939 -11.2931,24.35625 -0.5433,0.74871 -0.7281,0.92212 -1.1773,0.93181 h -19.1687 c -0.7486,1.5e-4 -0.2923,-0.74004 -0.141,-0.93891 z m -105.4101,-28.080123 c -0.8029,-4.25059 -1.2243,-8.64391 -1.2243,-13.12686 0,-4.48801 0.4175,-8.86194 1.2215,-13.11375 0.1732,-0.80016 0.4132,-0.91827 0.6499,-0.93462 h 22.4861 c 0.3633,0.0173 0.3211,0.4632 0.232,0.9731 -0.7725,4.54185 -1.1754,8.95531 -1.1754,13.07533 0,4.13568 0.4059,8.56683 1.1841,13.12686 0.2916,0.94397 0.054,0.93929 -0.2241,0.92163 h -22.5027 c -0.5313,0.008 -0.6063,-0.60142 -0.6472,-0.92173 z m 25.2843,1.2e-4 c -1.4038,-8.68062 -1.5117,-17.54929 -0.123,-26.21812 0.063,-0.93797 0.2295,-0.95613 0.7695,-0.95681 h 41.2349 c 0.6903,0.0233 0.9384,0.37832 0.9145,0.93713 v 26.22282 c -0.025,0.8145 -0.2596,0.92431 -0.9313,0.9373 h -41.2022 c -0.5163,-0.0215 -0.5635,-0.31893 -0.6634,-0.92161 z m 44.6703,-0.0324 v -26.1898 c 0.033,-0.60741 0.2655,-1.01421 0.9656,-0.9539 h 41.2021 c 0.6356,0.0282 0.5126,0.39234 0.6035,0.9344 1.4125,8.68642 1.5079,17.54554 0.117,26.22468 -0.138,0.7942 -0.2472,0.93619 -0.7196,0.9375 h -41.2351 c -0.785,0.008 -0.9276,-0.25346 -0.932,-0.95408 z m 44.7098,0.0188 c 0.7767,-4.55524 1.1818,-8.98173 1.1818,-13.1128 0,-4.12575 -0.4041,-8.54576 -1.1787,-13.09409 -0.3033,-0.93139 -0.108,-0.94405 0.236,-0.95418 h 22.4859 c 0.5296,0.009 0.5382,0.36476 0.6463,0.91857 0.806,4.25696 1.2245,8.63615 1.2245,13.12967 0,4.4838 -0.4215,8.87815 -1.2246,13.12968 -0.2922,1.16113 -0.3416,0.92275 -0.6461,0.91879 h -22.4691 c -0.4825,0.001 -0.3498,-0.39921 -0.256,-0.93525 z m -113.8206,-29.9625 c 2.2012,-8.9304 6.0939,-17.212137 11.3437,-24.431165 0.4697,-0.568081 0.6834,-0.66777 1.5843,-0.864495 h 18.1806 c 0.8361,-0.03147 0.9836,0.05376 0.6806,0.924539 -3.9065,7.699479 -6.8103,16.147271 -8.5526,24.374031 -0.1305,0.7959 -0.3645,0.908 -0.9117,0.92475 h -21.5643 c -0.7066,-0.012 -0.9601,-0.0992 -0.7606,-0.92785 z m 25.0492,0.008 c 0.7053,-3.33978 1.6247,-6.63676 2.7966,-9.878862 1.646,-4.79229 3.6365,-9.722445 6.0555,-14.458647 0.3752,-0.652175 0.4703,-0.693861 1.2686,-0.965222 h 31.1445 c 0.7152,-0.05817 0.9475,0.151088 0.9255,1.005494 v 24.291627 c -0.025,0.45122 -0.1155,0.87036 -0.9312,0.92622 h -40.7669 c -0.6397,-0.0221 -0.6187,-0.31065 -0.4929,-0.92067 z m 44.0636,-0.006 V 42.721269 c -0.064,-0.70552 0.2958,-0.986949 0.981,-0.943119 h 30.8316 c 0.9369,0.04019 1.2303,0.390078 1.4803,0.905526 4.0496,7.669604 7.0584,15.920621 8.8134,24.400261 0.2693,1.0201 0.015,0.89773 -0.4756,0.91773 h -40.6992 c -0.6287,-0.012 -0.9732,-0.28904 -0.9321,-0.92622 z m 44.0025,0.001 c -1.7256,-8.14837 -4.5905,-16.513467 -8.4405,-24.153006 -0.585,-0.913926 -0.4316,-1.148787 0.7177,-1.145697 h 18.056 c 1.0429,-0.01911 1.4181,0.603501 1.7005,1.058034 5.1749,7.168632 9.0164,15.374609 11.1986,24.218579 0.3168,1.12237 0,0.94957 -0.3699,0.94741 h -22.1171 c -0.7195,-0.0186 -0.616,-0.3043 -0.7447,-0.92461 z m -98.8262,-28.169919 c 11.0019,-13.152147 26.7156,-22.220882 44.5533,-24.589448 3.6372,-0.370036 4.2629,-0.08468 -0.021,0.96953 -10.1505,3.520444 -18.6826,12.535888 -25.0258,23.65663 -0.3159,0.529178 -0.6471,0.898212 -1.3167,0.960728 h -17.6187 c -0.8211,-0.05206 -0.9275,-0.144765 -0.5711,-0.996785 z m 21.6609,0.06697 c 5.8187,-10.077413 13.8321,-18.765903 25.0802,-22.425989 1.7514,-0.530188 3.5076,-0.830367 5.2474,-0.94827 0.8511,0.05385 0.8055,0.179661 0.9575,0.880229 v 22.460598 c 0.02,0.616539 -0.2912,0.941901 -0.9366,0.975336 l -29.9468,-0.0117 c -0.8605,-0.1212 -0.9048,-0.11979 -0.4023,-0.930242 z m 33.1581,-0.002 V 16.480344 c -0.029,-0.78601 0.1715,-0.918307 0.9798,-0.861543 11.105,0.96185 21.3041,9.280118 27.2925,18.636657 0.9806,1.460195 1.9049,2.948112 2.7959,4.463751 0.3244,0.524877 0.5053,1.127622 -0.8796,1.184939 h -29.2386 c -0.5844,0.03354 -0.9479,-0.216917 -0.95,-0.932076 z m 33.4652,0.01556 c -6.3494,-11.146967 -14.8961,-20.184795 -25.0671,-23.70627 -2.2907,-0.609656 -4.8026,-1.569771 0.018,-0.960912 17.5719,2.339626 33.0793,11.180682 44.0512,24.020955 0.8708,1.184376 0.8991,1.530999 -0.015,1.562278 h -17.3058 c -1.1902,-0.06697 -1.4106,-0.361231 -1.6903,-0.916537 z" />
  </g>
  <metadata
     id="metadata207">
    <rdf:RDF>
      <cc:Work>
        <dc:format>image/svg+xml</dc:format>
        <dc:type
           rdf:resource="http://purl.org/dc/dcmitype/StillImage" />
        <cc:license
           rdf:resource="http://creativecommons.org/publicdomain/zero/1.0/" />
        <dc:publisher>
          <cc:Agent
             rdf:about="http://openclipart.org/">
            <dc:title />
          </cc:Agent>
        </dc:publisher>
        <dc:title>nasapower</dc:title>
        <dc:date>2017-12-12</dc:date>
        <dc:description>R nasapower package hex sticker, https://adamhsparks.github.io/nasapower/</dc:description>
        <dc:source>https://adamhsparks.github.io/nasapower/inst/vector/</dc:source>
        <dc:creator>
          <cc:Agent>
            <dc:title>adamhsparks</dc:title>
          </cc:Agent>
        </dc:creator>
        <dc:subject>
          <rdf:Bag>
            <rdf:li>R</rdf:li>
            <rdf:li>hexsticker</rdf:li>
          </rdf:Bag>
        </dc:subject>
        <dc:rights>
          <cc:Agent>
            <dc:title>CC0</dc:title>
          </cc:Agent>
        </dc:rights>
        <dc:contributor>
          <cc:Agent>
            <dc:title>Josh &quot;Cheeseness&quot; Bush, anonymous, bnielsen, Nikita Prokopov</dc:title>
          </cc:Agent>
        </dc:contributor>
      </cc:Work>
      <cc:License
         rdf:about="http://creativecommons.org/publicdomain/zero/1.0/">
        <cc:permits
           rdf:resource="http://creativecommons.org/ns#Reproduction" />
        <cc:permits
           rdf:resource="http://creativecommons.org/ns#Distribution" />
        <cc:permits
           rdf:resource="http://creativecommons.org/ns#DerivativeWorks" />
      </cc:License>
    </rdf:RDF>
  </metadata>
</svg>
