<?xml version="1.0" encoding="UTF-8" standalone="no"?>
<svg
   xmlns:dc="http://purl.org/dc/elements/1.1/"
   xmlns:cc="http://creativecommons.org/ns#"
   xmlns:rdf="http://www.w3.org/1999/02/22-rdf-syntax-ns#"
   xmlns:svg="http://www.w3.org/2000/svg"
   xmlns="http://www.w3.org/2000/svg"
   xmlns:sodipodi="http://sodipodi.sourceforge.net/DTD/sodipodi-0.dtd"
   xmlns:inkscape="http://www.inkscape.org/namespaces/inkscape"
   id="svg2"
   sodipodi:docname="GSODR-hex.svg"
   viewBox="0 0 155.55119 180"
   version="1.1"
   inkscape:version="1.0rc1 (09960d6, 2020-04-09)"
   width="165.92126"
   height="192"
   inkscape:export-filename="/Users/asparks/Development/bomrang/man/figures/bomrang-hex.png"
   inkscape:export-xdpi="27.780001"
   inkscape:export-ydpi="27.780001">
  <title
     id="title1425">GSODR</title>
  <defs
     id="defs4">
    <marker
       inkscape:stockid="Arrow2Lstart"
       orient="auto"
       refY="0.0"
       refX="0.0"
       id="marker5013"
       style="overflow:visible"
       inkscape:isstock="true">
      <path
         id="path5011"
         style="fill-rule:evenodd;stroke-width:0.625;stroke-linejoin:round;stroke:#000000;stroke-opacity:1;fill:#000000;fill-opacity:1"
         d="M 8.7185878,4.0337352 L -2.2072895,0.016013256 L 8.7185884,-4.0017078 C 6.9730900,-1.6296469 6.9831476,1.6157441 8.7185878,4.0337352 z "
         transform="scale(1.1) translate(1,0)" />
    </marker>
    <marker
       inkscape:stockid="Arrow2Lstart"
       orient="auto"
       refY="0.0"
       refX="0.0"
       id="Arrow2Lstart"
       style="overflow:visible"
       inkscape:isstock="true">
      <path
         id="path4689"
         style="fill-rule:evenodd;stroke-width:0.625;stroke-linejoin:round;stroke:#000000;stroke-opacity:1;fill:#000000;fill-opacity:1"
         d="M 8.7185878,4.0337352 L -2.2072895,0.016013256 L 8.7185884,-4.0017078 C 6.9730900,-1.6296469 6.9831476,1.6157441 8.7185878,4.0337352 z "
         transform="scale(1.1) translate(1,0)" />
    </marker>
    <marker
       inkscape:stockid="Arrow1Lend"
       orient="auto"
       refY="0.0"
       refX="0.0"
       id="Arrow1Lend"
       style="overflow:visible;"
       inkscape:isstock="true">
      <path
         id="path4674"
         d="M 0.0,0.0 L 5.0,-5.0 L -12.5,0.0 L 5.0,5.0 L 0.0,0.0 z "
         style="fill-rule:evenodd;stroke:#000000;stroke-width:1pt;stroke-opacity:1;fill:#000000;fill-opacity:1"
         transform="scale(0.8) rotate(180) translate(12.5,0)" />
    </marker>
    <marker
       inkscape:stockid="Arrow2Mend"
       orient="auto"
       refY="0.0"
       refX="0.0"
       id="Arrow2Mend"
       style="overflow:visible;"
       inkscape:isstock="true">
      <path
         id="path4698"
         style="fill-rule:evenodd;stroke-width:0.625;stroke-linejoin:round;stroke:#000000;stroke-opacity:1;fill:#000000;fill-opacity:1"
         d="M 8.7185878,4.0337352 L -2.2072895,0.016013256 L 8.7185884,-4.0017078 C 6.9730900,-1.6296469 6.9831476,1.6157441 8.7185878,4.0337352 z "
         transform="scale(0.6) rotate(180) translate(0,0)" />
    </marker>
    <style
       id="style22186">.cls-1{fill:none;}.cls-2{fill:#ba6f38;}.cls-3{clip-path:url(#clip-path);}.cls-4{fill:#ed7d15;}.cls-5{opacity:0.25;fill:url(#linear-gradient);}.cls-6{fill:#ac5d12;}.cls-7{clip-path:url(#clip-path-2);}.cls-8{fill:#36a85d;}.cls-9{fill:#e6b35a;}.cls-10{fill:#fff;}.cls-11{opacity:0.94;}</style>
    <clipPath
       id="clip-path">
      <polygon
         id="polygon22189"
         points="369.5,7.4 728.2,214.5 728.2,636.6 369.5,845 2.8,636.6 2.8,214.5 369.5,7.4 "
         class="cls-1"
         style="fill:none" />
    </clipPath>
  </defs>
  <sodipodi:namedview
     id="base"
     bordercolor="#666666"
     inkscape:pageshadow="2"
     inkscape:window-y="23"
     pagecolor="#ffffff"
     inkscape:window-height="855"
     inkscape:window-maximized="1"
     inkscape:zoom="2.8182002"
     inkscape:window-x="1194"
     showgrid="false"
     borderopacity="1.0"
     inkscape:current-layer="layer1"
     inkscape:cx="88.903129"
     inkscape:cy="95.183095"
     inkscape:window-width="1440"
     inkscape:pageopacity="0.0"
     inkscape:document-units="px"
     fit-margin-top="0"
     fit-margin-left="0"
     fit-margin-right="0"
     fit-margin-bottom="0"
     inkscape:document-rotation="0" />
  <g
     id="layer1"
     inkscape:label="Layer 1"
     inkscape:groupmode="layer"
     transform="translate(1585.1126,271.47629)">
    <g
       id="g92">
      <path
         id="path22209"
         d="m -1435.764,-230.06675 -58.808,-34.0271 -12.765,-7.38244 -12.765,7.38244 -58.808,34.0271 -6.2026,3.58515 v 90.01061 l 6.2026,3.58515 59.5278,34.451385 12.0452,6.958162 12.0453,-6.958162 59.5277,-34.451385 6.2026,-3.58515 v -90.01061 z m 0,90.22275 -71.573,41.409545 -71.573,-41.409545 v -82.84031 l 71.573,-41.40954 v 0 l 71.573,41.40954 z"
         class="cls-6"
         inkscape:connector-curvature="0"
         style="fill:#000080;fill-opacity:1;stroke-width:0.211915" />
      <path
         id="path22217"
         d="m -1515.9105,-134.24353 0.1905,-0.19092 h -0.063 z"
         class="cls-9"
         inkscape:connector-curvature="0"
         style="fill:#e6b35a;stroke-width:0.211915" />
      <g
         transform="matrix(0.17081367,0,0,0.25275894,-1573.55,-236.42967)"
         id="g411"
         style="overflow:visible;image-rendering:auto">
        <g
           fill="#b2b2b2"
           id="g390">
          <path
             inkscape:connector-curvature="0"
             d="m 346.72,131.38 -3.377,4.501 -2.25,2.251 -4.501,2.475 -0.676,2.026 c 0,0 -1.801,1.801 -1.575,2.927 0.226,1.126 0.226,3.151 0.226,3.151 0,0 -3.151,2.926 -4.502,3.826 -1.351,0.9 -3.152,2.926 -3.152,2.926 0,0 -1.125,1.351 -1.8,1.801 -0.675,0.449 -1.8,1.8 -2.701,3.151 -0.901,1.351 -1.801,2.25 -2.251,2.925 -0.45,0.675 -1.801,2.251 -2.476,4.727 -0.675,2.477 -2.476,5.402 -2.476,5.402 l -0.451,1.125 c 0.226,3.827 0.225,4.502 0.676,5.853 0.45,1.35 0.901,0.899 0.45,3.826 -0.45,2.925 -0.45,4.051 -0.9,5.402 -0.45,1.349 -1.801,3.825 -2.25,4.952 -0.451,1.125 0.9,3.15 0.9,3.15 0,0 0.676,2.927 0.225,3.602 -0.45,0.676 0.225,2.026 0.225,2.026 0,0 2.701,1.575 3.602,2.476 0.9,0.9 2.476,2.251 2.701,2.926 0.226,0.676 2.026,3.827 2.251,4.502 0.225,0.675 2.026,3.15 2.476,3.826 0.45,0.676 2.701,3.152 2.701,3.152 0,0 2.926,2.249 3.602,3.15 0.675,0.9 2.701,1.35 3.375,2.025 0.676,0.675 2.251,0.449 3.151,1.126 0.901,0.675 2.701,-0.451 3.602,0 0.9,0.45 3.377,-0.45 4.052,-0.9 0.675,-0.45 2.25,-2.025 3.376,-1.351 1.125,0.674 1.8,0 2.701,0.225 0.899,0.225 2.25,-0.899 3.15,-0.899 0.901,0 3.151,-0.901 3.826,-0.901 0.676,0 2.927,-1.352 3.828,-1.352 0.899,0 2.025,-0.898 3.15,-0.449 1.125,0.449 0.675,-0.899 2.701,-0.225 2.026,0.674 2.701,0 3.376,0.674 0.676,0.676 1.577,0.002 2.252,0.902 0.675,0.899 1.8,1.574 2.025,2.475 0.224,0.901 1.575,1.802 1.575,1.802 l 1.351,0.224 c 0,0 1.802,-1.35 2.251,-0.449 0.45,0.9 2.476,0.676 2.476,0.676 l 2.025,2.25 0.676,0.9 c 0,0 1.351,3.602 1.125,4.952 -0.225,1.35 -0.225,4.276 -0.9,4.951 -0.675,0.676 -1.125,3.602 -1.125,3.602 0,0 -0.901,0.9 1.125,2.701 2.026,1.802 3.377,3.376 4.052,4.275 0.676,0.901 2.477,3.378 2.7,4.953 0.226,1.575 0.676,2.475 1.577,4.501 0.9,2.026 2.025,2.251 2.25,4.503 0.226,2.25 0.675,2.251 0.45,3.825 -0.225,1.576 -0.9,1.801 -0.225,2.926 0.675,1.126 1.574,3.152 1.351,3.827 -0.225,0.675 -0.676,3.601 -0.676,3.601 l -0.45,1.351 -2.025,3.828 -1.351,2.024 c -0.45,1.575 -1.35,3.151 -1.125,5.402 0.224,2.251 -1.125,2.25 0.675,4.5 1.801,2.252 2.7,4.728 3.826,6.754 1.126,2.025 1.801,4.051 2.025,5.401 0.226,1.351 1.126,1.802 1.576,3.602 0.449,1.801 0.675,2.7 0.675,3.826 0,1.125 -0.226,4.052 0.226,4.727 0.449,0.675 0.675,2.702 0.9,3.602 0.225,0.901 -0.676,1.126 0.675,2.702 1.351,1.575 2.251,2.475 3.151,3.601 0.9,1.126 0.675,0.675 1.351,2.251 0.675,1.575 1.575,2.477 1.801,3.826 0.225,1.35 0.449,4.726 1.125,6.302 0.675,1.576 1.575,3.152 1.575,3.152 0,0 2.477,1.575 3.377,1.35 0.899,-0.225 2.701,-2.249 4.052,-1.575 1.351,0.675 2.476,0 3.601,0 1.125,0 2.251,-1.351 3.377,-1.351 1.125,0 2.7,-1.801 3.602,-1.35 0.9,0.449 2.024,-0.452 3.15,-1.577 1.126,-1.124 1.801,-2.024 3.826,-3.825 2.026,-1.801 1.801,-1.802 3.151,-2.927 1.351,-1.126 2.702,-3.602 4.277,-4.052 1.575,-0.45 2.025,-2.024 2.475,-3.15 0.451,-1.126 0.675,-1.801 1.351,-2.702 0.676,-0.899 0.225,0.228 1.351,-2.7 1.126,-2.927 2.478,-4.051 3.603,-4.727 1.125,-0.675 1.8,-2.025 2.475,-2.251 0.675,-0.226 1.801,0.675 1.351,-1.351 -0.449,-2.025 0,-4.951 -0.449,-5.626 -0.451,-0.677 -1.127,1.574 -0.901,-1.803 0.227,-3.375 2.701,-6.752 2.701,-6.752 0,0 3.376,-4.276 4.502,-4.951 1.126,-0.675 1.35,-1.35 2.927,-2.251 1.574,-0.899 4.951,-3.15 4.951,-4.276 0,-1.126 1.351,-4.052 1.351,-4.728 0,-0.675 0,-1.35 -0.449,-5.177 -0.451,-3.825 0.449,-2.926 -0.901,-6.527 -1.35,-3.601 -1.577,-8.103 -2.476,-9.228 -0.901,-1.126 -0.451,-4.053 -0.451,-4.952 0,-0.9 1.577,-3.151 2.252,-4.051 0.675,-0.901 3.601,-4.503 3.601,-4.503 0,0 4.501,-5.176 6.077,-7.651 1.576,-2.477 3.151,-4.727 4.276,-5.627 1.126,-0.9 3.827,-2.928 5.402,-5.178 1.576,-2.25 4.727,-6.526 4.953,-7.203 0.224,-0.674 2.024,-2.925 2.024,-2.925 0,0 2.476,-2.927 2.927,-4.502 0.449,-1.576 2.699,-10.354 2.249,-9.904 -0.448,0.451 -3.15,0.9 -4.051,1.125 -0.899,0.226 1.352,1.125 -5.177,0.676 -6.526,-0.451 -9.902,0.675 -9.902,0.675 -2.027,-0.451 -3.602,1.8 -4.278,-1.351 -0.675,-3.15 -1.126,-4.951 -2.475,-7.202 -1.351,-2.251 -2.252,-3.151 -4.276,-6.078 -2.025,-2.925 -1.802,-1.576 -3.603,-3.825 -1.8,-2.251 -2.251,-1.577 -3.376,-4.502 -1.125,-2.926 -2.025,-1.8 -3.376,-5.852 -1.351,-4.053 -2.251,-4.503 -2.926,-6.753 -0.676,-2.25 -1.575,-2.927 -2.026,-4.952 -0.45,-2.026 -5.626,-12.379 -6.302,-13.055 -0.676,-0.674 -1.801,-4.277 -1.576,-3.601 0.226,0.675 3.377,2.926 3.377,2.926 0,0 1.8,-0.676 2.476,-0.676 0.675,0 3.376,2.477 3.376,3.376 0,0.901 4.729,5.178 5.853,8.329 1.125,3.151 2.478,5.402 2.701,6.302 0.223,0.9 2.476,4.502 3.377,5.853 0.899,1.351 3.825,4.051 4.275,5.402 0.45,1.351 4.728,5.852 4.728,8.778 0,2.926 2.024,6.752 2.25,7.652 0.226,0.9 4.276,2.027 4.276,2.027 l 5.403,-1.351 c 0,0 8.102,-5.178 9.003,-5.178 0.899,0 8.104,-3.376 8.104,-3.376 0,0 2.925,-2.7 4.95,-4.275 2.026,-1.576 4.277,-4.501 4.728,-5.853 0.449,-1.351 1.35,-1.575 3.15,-3.602 1.801,-2.026 4.277,-4.051 2.702,-5.402 -1.576,-1.35 -2.477,-0.9 -4.727,-3.151 -2.251,-2.25 -2.026,-1.8 -3.602,-4.727 -1.576,-2.925 0.225,-6.302 -3.152,-2.925 -3.375,3.376 -2.025,4.276 -5.402,4.953 -3.375,0.674 -4.727,2.925 -6.302,0.674 -1.575,-2.251 -3.15,-0.9 -4.052,-4.277 -0.9,-3.376 -1.576,-3.602 -1.8,-4.951 -0.224,-1.351 0,-1.351 -1.801,-4.728 -1.8,-3.376 -0.45,-8.553 0.675,-5.627 1.126,2.926 2.926,3.376 5.853,5.402 2.925,2.025 4.277,3.602 6.977,3.827 2.701,0.224 4.952,0 5.402,0.449 0.45,0.451 0.9,-0.224 2.026,0.225 1.126,0.451 1.574,-0.674 2.025,1.125 0.45,1.801 2.926,2.026 4.051,3.151 1.126,1.125 1.126,0.676 4.053,1.125 2.927,0.451 6.979,0.451 6.979,0.451 l 4.275,-0.226 4.952,0.449 c 0,0 3.603,2.026 4.502,2.026 0.9,0 1.125,2.477 3.376,3.827 2.251,1.351 2.701,1.575 4.051,3.151 1.353,1.576 1.126,2.251 2.926,3.826 1.802,1.577 4.729,-0.224 5.179,-0.898 0.448,-0.676 2.699,-1.801 2.251,0 -0.451,1.8 2.249,1.124 1.574,5.402 -0.675,4.275 -1.126,3.15 0,6.077 1.125,2.926 6.077,11.929 6.303,14.63 0.226,2.701 1.575,1.801 1.8,4.278 0.226,2.475 1.575,3.375 1.575,5.176 0,1.801 1.577,2.25 1.801,3.602 0.227,1.351 2.702,0.224 3.377,0 0.676,-0.226 3.826,-3.152 3.826,-3.152 0,0 1.353,-0.449 1.126,-2.701 -0.226,-2.249 0,-1.8 0,-5.176 0,-3.376 -1.35,-3.376 -0.675,-6.751 0.675,-3.376 2.475,-5.403 2.926,-6.978 0.45,-1.575 2.251,-4.276 3.15,-4.502 0.9,-0.225 5.853,-2.7 6.979,-4.277 1.125,-1.575 2.926,-3.376 4.727,-5.176 1.8,-1.8 4.951,-4.051 5.627,-3.376 0.675,0.675 0.45,0.45 1.576,0.45 1.125,0 3.151,0.901 4.726,1.126 1.576,0.225 4.728,4.051 5.403,6.077 0.675,2.026 0.225,1.575 2.701,4.502 2.476,2.925 4.727,1.124 4.727,4.726 0,3.602 0,3.376 1.126,4.727 1.125,1.351 2.475,-2.476 3.825,-2.025 1.35,0.451 1.575,-0.45 2.7,3.151 1.125,3.602 1.8,3.602 2.027,7.203 0.224,3.601 -0.226,0.225 -0.226,3.15 0,2.927 -0.226,3.152 0.226,5.852 0.449,2.703 2.023,3.603 1.8,4.053 0,0 1.35,-3.826 0.899,-6.528 -0.448,-2.7 0,-6.526 1.126,-7.651 1.125,-1.127 2.252,-2.251 3.151,0.675 0.901,2.925 1.351,0.675 3.376,4.051 2.027,3.377 3.827,2.7 4.052,4.276 0.225,1.576 1.353,1.802 2.926,3.151 1.576,1.351 2.926,-0.224 4.727,-1.575 1.802,-1.351 6.752,-6.303 6.979,-8.329 0.224,-2.025 2.25,-1.576 -1.352,-6.751 -3.602,-5.177 -3.602,-6.978 -7.428,-10.129 -3.824,-3.151 -6.076,-3.376 -3.149,-7.428 2.926,-4.052 4.277,-6.752 6.077,-5.626 1.801,1.125 4.95,0.899 4.95,5.402 0,4.501 -0.9,9.453 2.251,4.051 3.151,-5.402 4.728,-8.553 3.826,-7.651 -0.899,0.9 2.026,-1.801 2.026,-1.801 0,0 0.226,-2.026 4.053,-2.926 3.825,-0.902 4.95,-1.351 6.302,-2.026 1.35,-0.676 5.177,-5.178 5.852,-7.203 0.675,-2.026 2.476,-5.627 2.026,-7.202 -0.45,-1.577 -2.702,-9.228 -3.152,-9.004 -0.449,0.226 -0.224,0.226 -3.149,-2.925 -2.928,-3.151 -4.953,-5.402 -5.403,-6.753 -0.45,-1.351 -1.576,-1.576 -0.226,-3.376 1.352,-1.8 2.027,-1.575 2.252,-3.151 0.224,-1.575 2.024,-2.926 -1.352,-1.8 -3.375,1.125 -0.9,0.451 -3.826,0.226 -2.926,-0.226 -10.578,1.575 -6.751,-3.151 3.825,-4.727 4.949,-7.652 5.625,-7.652 0.677,0 4.053,-3.827 4.277,-0.226 0.226,3.601 1.575,2.7 1.801,4.951 0.226,2.251 4.727,-2.475 4.727,-2.475 0,0 1.575,0.45 2.7,1.575 1.126,1.125 1.126,4.727 1.126,4.727 0,0 -0.9,-1.126 1.576,0.675 2.477,1.802 5.176,0.9 5.176,4.727 0,3.826 0,4.052 1.576,4.952 1.577,0.9 3.15,0.451 4.503,-0.675 1.35,-1.125 3.6,-5.177 3.6,-5.177 0,0 0.225,-1.576 -3.376,-3.827 -3.601,-2.25 -5.852,-3.825 -7.201,-4.951 -1.352,-1.125 -0.901,-4.501 0.448,-5.853 1.353,-1.351 2.026,-2.026 1.576,-3.826 -0.451,-1.802 0.676,-3.152 4.052,-2.927 3.376,0.226 4.051,-0.224 4.051,-0.224 0,0 0.677,0.449 0.677,-0.901 0,-1.35 4.275,-7.653 3.149,-7.653 -1.125,0 0.228,-1.575 -0.45,-4.051 -0.675,-2.477 2.251,-6.302 -0.224,-8.103 -2.476,-1.801 -3.152,-2.702 -4.727,-5.402 -1.575,-2.702 -1.352,-3.151 -7.203,-3.827 -5.852,-0.675 -8.553,1.351 -9.904,-0.449 -1.351,-1.801 -2.025,2.7 -2.925,-2.702 -0.9,-5.402 1.351,-9.004 1.351,-9.004 0,0 3.601,-2.25 4.5,-3.826 0.9,-1.576 4.501,-2.251 7.43,-1.125 2.926,1.125 7.201,0.9 10.804,1.577 3.601,0.674 3.376,2.925 5.177,0 1.8,-2.928 0,-4.277 1.35,-5.853 1.352,-1.576 2.926,-4.052 4.051,-2.477 1.125,1.577 3.379,3.151 5.18,1.125 1.8,-2.025 2.475,-2.25 2.475,-2.25 l 0.898,0.901 c 0,0 2.026,-1.127 2.026,0.898 0,2.027 2.027,4.278 0.901,5.853 -1.127,1.577 -2.7,1.351 -2.7,5.177 0,3.828 0,3.152 2.474,6.304 2.477,3.15 4.052,0.449 4.502,3.826 0.451,3.376 0.899,2.702 3.377,4.952 2.476,2.25 2.024,2.25 3.826,3.601 1.801,1.351 2.702,2.702 2.702,0.451 0,-2.251 0.225,-3.376 0,-5.402 -0.227,-2.025 1.801,-3.602 0.448,-6.978 -1.35,-3.376 -0.224,-3.151 -2.925,-5.627 -2.702,-2.475 -4.503,0.451 -5.401,-3.151 -0.901,-3.601 4.275,-5.177 5.627,-5.627 1.35,-0.449 3.374,-3.151 3.824,-1.35 0.451,1.8 -3.375,8.328 3.153,1.35 6.526,-6.977 3.601,-4.051 3.601,-4.051 0,0 3.376,-0.45 4.051,0 0.674,0.451 2.478,-2.026 1.8,-1.8 -0.675,0.226 -7.2,-3.602 -7.2,-3.602 l -4.729,-2.7 c 0,0 1.577,-1.126 2.702,-0.9 1.126,0.225 1.352,-2.251 2.478,-2.477 1.125,-0.225 8.777,1.577 10.354,2.477 1.575,0.9 7.201,1.125 6.525,0.675 -0.675,-0.451 -4.275,-3.151 -4.501,-4.052 -0.224,-0.9 -8.103,-2.701 -10.578,-2.476 -2.477,0.224 -4.726,0.899 -6.752,0.224 -2.027,-0.675 -4.952,-2.476 -6.528,-2.476 -1.575,0 -21.382,-3.826 -22.282,-3.601 -0.9,0.225 -2.252,4.501 -2.927,3.826 -0.675,-0.675 -1.8,-0.676 -4.953,-1.576 -3.149,-0.9 -7.427,-1.576 -13.055,-2.025 -5.626,-0.45 -9.451,0.45 -11.027,-1.351 -1.576,-1.8 -4.951,-1.125 -8.778,-1.351 -3.826,-0.224 -8.328,0 -10.354,0 -2.026,0 -6.751,-0.224 -7.877,-0.45 -1.126,-0.226 -2.476,-1.801 -3.826,-2.025 -1.352,-0.226 -1.127,-0.675 -3.827,-1.125 -2.701,-0.451 -2.476,-3.376 -3.376,-0.901 -0.9,2.477 -0.451,1.801 -1.801,2.701 -1.351,0.901 -2.701,2.701 -3.602,2.701 -0.899,0 -4.5,0.225 -5.177,-0.225 -0.676,-0.45 -1.801,-0.9 -4.052,-0.9 -2.251,0 -2.251,0.224 -5.177,-0.226 -2.926,-0.45 -5.177,-0.226 -7.878,-1.575 -2.701,-1.351 -2.701,-2.251 -4.952,-2.026 -2.249,0.226 -2.249,-0.45 -5.402,-0.45 -3.15,0 -6.976,1.801 -9.003,2.026 -2.024,0.225 -6.526,-0.226 -8.102,-0.901 -1.577,-0.675 -2.026,-2.25 -7.879,-1.576 -5.852,0.676 -9.228,0.676 -8.103,-1.125 1.126,-1.8 2.476,-3.601 3.151,-3.826 0.676,-0.225 2.25,-1.35 1.124,-1.8 -1.124,-0.451 -2.25,-1.125 -4.95,-1.351 -2.702,-0.225 -2.478,0.9 -6.528,0.45 -4.051,-0.45 2.251,-1.575 -6.076,-1.35 -8.328,0.226 -10.354,0.9 -11.254,0.9 -0.901,0 -2.027,-1.8 -4.277,0.9 -2.251,2.701 -5.404,4.276 -9.904,4.501 -4.501,0.226 -4.727,-0.45 -9.002,1.125 -4.277,1.575 -6.979,-0.45 -6.078,3.151 0.899,3.601 2.026,4.952 2.026,5.627 0,0.675 -2.026,5.177 -4.501,2.476 -2.478,-2.701 -6.979,-13.28 -4.953,-6.077 2.025,7.202 6.526,9.679 2.251,10.804 -4.276,1.125 -3.828,-0.45 -4.503,-0.901 -0.674,-0.45 0,-3.601 -0.225,-5.402 -0.226,-1.8 -0.675,-2.926 -1.575,-3.826 -0.899,-0.901 -0.676,-2.251 -2.476,-2.701 -1.801,-0.45 -0.225,-1.351 -3.151,-1.351 -2.926,0 -5.401,-1.801 -4.726,2.251 0.674,4.051 1.349,1.351 3.149,5.177 1.8,3.826 5.177,1.125 2.702,3.826 -2.476,2.701 -9.003,1.801 -10.579,0.676 -1.576,-1.126 -1.125,0.45 -4.053,-1.576 -2.926,-2.026 -2.024,-3.602 -5.4,-2.026 -3.376,1.576 -4.502,4.502 -5.853,3.376 -1.351,-1.126 -4.501,1.575 -5.627,0.226 -1.126,-1.351 -5.628,-1.351 -6.527,0 -0.901,1.35 -3.602,1.125 -7.428,2.926 -3.826,1.8 -2.702,0.224 -7.428,4.051 -4.728,3.826 -7.429,6.977 -9.003,4.501 -1.576,-2.475 -10.13,-6.752 -6.753,-7.428 3.377,-0.675 4.952,-2.025 6.753,-0.45 1.801,1.575 4.728,1.126 5.176,0 0.45,-1.126 2.477,-2.251 -0.225,-3.601 -2.701,-1.351 -2.926,-0.451 -7.202,-2.026 -4.277,-1.576 0,-1.125 -5.853,-2.026 -5.852,-0.9 -8.329,-1.35 -9.904,-1.8 -1.574,-0.45 -3.826,0 -6.076,-0.225 -2.252,-0.225 -3.826,-0.675 -5.853,-0.45 -2.025,0.225 -3.15,-0.225 -5.852,1.801 -2.702,2.026 -4.728,2.926 -6.528,4.501 -1.8,1.575 -6.526,4.727 -7.877,5.853 -1.351,1.125 -6.078,4.726 -6.528,6.077 -0.45,1.351 0.45,2.476 -1.351,3.376 -1.801,0.9 -3.601,0.9 -4.952,1.125 -1.351,0.225 0,-2.026 -1.351,0.225 -1.35,2.251 -0.9,10.354 0.225,9.228 1.125,-1.126 0.45,-4.726 5.402,-1.349 4.952,3.375 8.104,2.925 7.878,6.076 -0.225,3.151 3.376,2.926 3.826,3.602 0.45,0.674 2.701,-0.901 2.701,-0.901 0,0 4.952,-3.151 4.952,-4.726 0,-1.576 3.151,-5.177 3.151,-5.177 0,0 -2.252,-1.125 -2.252,-3.376 0,-2.25 0.677,-2.927 1.126,-5.178 0.45,-2.25 -2.476,10e-4 4.277,-4.277 6.751,-4.276 7.202,-1.349 7.202,-1.349 0,0 0.899,0.9 -0.226,2.25 -1.125,1.351 -3.151,4.953 -3.601,5.402 -0.451,0.451 2.026,4.052 3.15,4.052 1.126,0 3.377,-0.901 4.728,-0.676 1.351,0.226 3.601,-0.674 4.276,-0.224 0.676,0.45 2.251,1.8 1.125,2.926 -1.125,1.125 -3.602,2.475 -5.401,2.026 -1.802,-0.449 -4.503,-3.602 -2.927,0.9 1.576,4.502 -0.225,5.627 -1.576,5.402 -1.349,-0.225 -4.276,-2.475 -3.826,0.901 0.451,3.375 -2.925,5.626 -3.601,5.626 -0.676,0 -2.025,-0.225 -2.025,-0.225 0,0 -2.027,-0.226 -3.151,-0.226 -1.126,0 -3.377,1.125 -4.052,2.026 -0.676,0.9 -1.576,0.226 -2.701,0.226 -1.125,0 0,-1.351 -2.251,-1.801 -2.25,-0.45 -3.601,-0.9 -4.951,0 -1.351,0.9 -3.376,1.35 -4.277,0.675 -0.9,-0.675 0.451,-2.252 -1.351,-1.35 -1.8,0.9 -3.151,3.376 -3.826,3.602 -0.675,0.224 2.026,0 -0.675,0.224 -2.701,0.226 -3.826,0.902 -5.177,1.351 -1.351,0.451 0.45,3.151 -2.026,4.051 -2.476,0.9 -0.674,-1.125 -3.151,0.9 -2.476,2.027 -2.927,3.827 -3.826,4.052 -0.901,0.226 -0.675,0.675 -2.701,0.9 -2.026,0.225 -1.8,0.45 -2.927,0.675 -1.125,0.225 0.226,0.676 -2.25,0.225 -2.477,-0.45 -4.277,0.451 -3.827,1.351 0.45,0.9 8.778,3.376 2.476,3.151 -6.302,-0.225 -4.276,0.9 -2.926,1.8 1.351,0.9 2.025,1.8 2.701,2.026 0.676,0.225 1.8,2.927 1.8,2.927 0,0 1.801,-0.226 0.676,1.35 -1.125,1.576 0.45,2.026 -0.676,4.052 -1.125,2.026 -1.125,0.675 -2.025,1.125 -0.9,0.449 -2.251,2.026 -4.728,0.675 -2.476,-1.351 -4.275,-2.026 -7.202,-2.25 -2.926,-0.226 -0.901,-0.675 -2.926,0.899 -2.026,1.577 -2.476,3.377 -2.25,5.402 0.225,2.025 0.45,4.727 -0.226,6.078 -0.675,1.35 -0.675,2.701 -0.226,4.727 0.451,2.025 1.802,2.927 1.802,2.927 0,0 3.151,0.449 3.826,0.675 0.675,0.225 2.026,-0.45 3.826,0.674 1.801,1.126 3.602,1.577 4.727,0.226 1.125,-1.35 5.627,-2.926 6.979,-4.276 1.35,-1.351 2.25,-1.8 1.575,-3.151 -0.675,-1.351 1.351,-4.727 2.476,-5.402 1.125,-0.675 3.601,-1.351 3.601,-1.351 l 2.701,-4.051 c 0,0 2.251,-2.477 3.376,-2.251 1.125,0.225 7.427,2.477 6.978,-0.449 -0.45,-2.927 0.45,-3.827 1.125,-2.702 0.675,1.125 2.476,0.675 2.476,0.675 0,0 0.9,-0.449 1.575,0.226 0.675,0.674 1.575,3.602 2.926,4.276 1.351,0.676 2.476,1.351 3.377,1.8 0.9,0.451 1.801,0 3.602,1.576 1.8,1.576 3.601,2.477 3.825,3.151 0.227,0.675 1.802,2.251 1.802,2.251 0,0 1.575,0.45 1.125,1.351 -0.45,0.9 -2.7,3.602 -3.826,4.051 -1.126,0.45 -4.051,-0.451 -2.926,0.45 1.124,0.9 2.701,2.026 3.376,1.35 0.676,-0.675 4.951,-5.177 4.951,-5.177 0,0 -0.225,0.225 0,-1.126 0.226,-1.349 0,-2.925 1.126,-2.25 1.125,0.676 1.801,1.576 2.251,0.676 0.45,-0.901 0.9,-0.45 -0.226,-1.125 -1.126,-0.676 -3.826,-4.502 -5.177,-4.727 -1.351,-0.226 -4.728,-2.477 -4.728,-2.477 0,0 -0.674,-0.675 -2.25,-2.475 -1.576,-1.801 -2.025,-1.351 -2.477,-2.927 -0.449,-1.575 -1.801,-3.601 0.676,-3.151 2.477,0.45 4.051,2.025 6.302,3.376 2.251,1.351 1.802,1.8 3.827,3.151 2.025,1.351 2.252,2.702 3.826,2.477 1.575,-0.225 3.377,0.9 3.377,2.926 0,2.026 0.449,4.276 0.899,4.727 0.451,0.451 1.8,1.351 2.251,2.251 0.45,0.9 1.351,3.151 2.025,4.051 0.676,0.9 1.351,1.576 2.026,2.702 0.675,1.125 0.9,-0.226 1.575,0.225 0.676,0.45 1.576,0.224 1.576,-0.676 0,-0.9 0.224,-2.476 0.224,-2.476 0,0 3.153,-0.9 2.253,-1.351 -0.901,-0.45 -3.603,-3.151 -3.377,-4.051 0.225,-0.9 0,-2.7 1.124,-2.475 1.126,0.224 2.252,2.25 4.728,0.449 2.476,-1.801 5.402,-2.701 4.501,0 -0.899,2.701 0.227,3.15 0,6.077 -0.224,2.927 0.902,2.026 2.478,3.602 1.575,1.576 2.7,1.802 3.825,2.251 1.126,0.451 2.926,0.226 4.728,0.451 1.801,0.225 2.926,-0.676 4.502,-0.225 1.574,0.45 5.176,-0.226 5.852,0.225 0.676,0.45 3.377,-0.9 3.601,0.675 0.225,1.576 1.126,-0.225 0.451,3.376 -0.675,3.601 -1.576,6.077 -1.576,6.077 -2.476,4.727 -3.376,5.853 -4.502,6.078 -1.124,0.225 -1.8,0.9 -3.825,0.675 -2.026,-0.226 -4.502,0 -7.428,-0.675 -2.926,-0.676 -8.329,0.675 -10.579,-0.676 -2.251,-1.35 -5.402,-0.225 -6.754,-1.8 -1.35,-1.576 -3.6,-1.351 -4.501,-2.251 -0.9,-0.9 -1.35,-3.375 -1.35,0.226 0,3.602 -2.026,3.826 -2.476,5.627 -0.451,1.8 0.674,0.9 -1.802,0.675 -2.476,-0.226 -3.151,1.125 -6.752,-1.575 -3.602,-2.701 -5.402,-2.701 -7.202,-3.827 -1.802,-1.126 -3.602,2.025 -5.402,-1.575 -1.801,-3.602 -4.277,-0.676 -4.502,-3.602 -0.225,-2.927 0,-2.7 0.225,-4.501 0.227,-1.801 2.701,-3.376 1.576,-4.051 -1.126,-0.675 -0.226,-1.801 -1.801,-1.125 -1.576,0.675 -3.826,0.9 -5.627,1.575 -1.801,0.676 4.051,0 -4.727,0.676 -8.778,0.675 -11.255,1.575 -11.255,1.575 0,0 -0.675,-0.45 -1.801,0.45 -1.125,0.9 -2.701,2.251 -4.276,1.576 -1.575,-0.676 -2.476,-0.451 -3.826,-0.225 -1.351,0.225 -2.25,-1.125 -3.826,0 -1.576,1.124 -3.376,1.575 -4.052,1.124 -0.7,-0.46 -1.83,-2.26 -1.83,-2.26 z"
             id="path368" />
          <path
             inkscape:connector-curvature="0"
             d="m 497.3,279.48 c -0.675,2.477 -3.151,6.077 -3.151,6.077 l -4.503,2.251 c 0,0 -1.573,1.351 -2.475,1.576 -0.9,0.224 -3.151,1.351 -3.151,1.351 0,0 -2.025,-0.451 -1.351,1.574 0.675,2.026 0.901,4.503 0.675,5.177 -0.224,0.676 -0.224,2.027 -0.224,3.828 0,1.8 -0.675,4.05 -1.801,4.5 -1.125,0.451 -2.251,0.901 -2.026,2.477 0.226,1.576 0.226,6.302 0.226,6.302 l 2.927,4.502 c 0,0 0.9,-0.675 2.701,-0.675 1.799,0 3.601,-1.574 3.601,-1.574 0,0 2.027,0.448 1.8,-2.026 -0.225,-2.477 0.902,-5.402 0.675,-6.078 -0.224,-0.675 2.027,-3.602 2.027,-4.276 0,-0.676 2.251,-3.825 2.251,-4.952 0,-1.125 1.575,-2.926 1.8,-4.275 0.225,-1.352 0.45,-4.502 0.9,-5.402 0.451,-0.9 0.676,-1.801 0.676,-2.701 0,-0.9 0,-2.701 0,-2.701 l -1.6,-4.96 z"
             id="path370" />
          <path
             inkscape:connector-curvature="0"
             d="m 673.54,309.87 c -0.675,0.899 -1.125,10.579 -1.575,11.704 -0.45,1.125 -1.351,6.978 -0.899,8.327 0.449,1.352 1.124,6.303 0.675,7.879 -0.451,1.575 0.225,6.527 -0.902,6.302 -1.124,-0.226 -1.573,0.226 -1.573,0.9 0,0.676 1.573,2.025 1.573,2.025 0,0 2.703,10e-4 3.828,-0.225 1.125,-0.225 3.376,-1.351 5.177,-1.351 1.801,0 2.927,-1.351 4.501,-1.351 1.576,0 4.953,-1.124 5.853,-0.675 0.9,0.449 2.25,-2.701 3.826,-2.025 1.576,0.675 4.953,-1.576 6.528,-1.576 1.574,0 2.251,-2.477 4.052,-2.025 1.8,0.45 5.177,-0.9 6.753,-0.227 1.573,0.677 4.051,-2.25 5.176,0 1.126,2.252 4.503,3.152 4.503,4.277 0,1.125 -0.228,3.602 -0.228,3.602 l 2.702,-0.226 c 0,0 4.275,-2.701 4.952,-2.701 0.675,0 2.251,-2.25 2.251,-1.124 0,1.124 -1.352,3.602 -1.801,4.726 -0.45,1.126 0.449,2.477 0.449,2.477 0,0 2.253,1.125 1.352,3.15 -0.901,2.026 0.224,1.577 0,3.151 -0.226,1.576 0,0.9 0.898,1.8 0.902,0.901 2.479,2.479 3.828,2.252 1.352,-0.226 1.8,-1.575 2.926,-0.9 1.125,0.675 3.375,0.225 4.05,1.126 0.678,0.899 -4.275,3.15 4.278,-0.675 8.553,-3.828 9.451,-4.728 10.577,-6.079 1.129,-1.35 2.479,-2.7 3.377,-3.601 0.901,-0.9 0.227,-0.675 2.926,-2.701 2.701,-2.025 2.701,-1.125 5.179,-4.952 2.476,-3.825 4.275,-5.176 4.727,-5.852 0.45,-0.676 1.35,-0.9 1.575,-3.603 0.225,-2.7 2.025,-5.176 2.025,-6.076 0,-0.899 0.675,-2.249 0.45,-3.826 -0.225,-1.576 0.901,-3.825 -0.45,-6.076 -1.351,-2.252 0.675,-3.15 -1.351,-4.053 -2.026,-0.9 -3.376,-0.449 -3.826,-2.025 -0.451,-1.576 -2.252,-1.351 -2.927,-5.627 -0.675,-4.276 -3.376,-4.728 -3.376,-4.728 0,0 -2.701,-1.125 -2.026,-1.574 0.677,-0.451 0.901,-3.603 0.677,-4.503 -0.226,-0.9 -0.226,-2.926 -0.9,-4.275 -0.675,-1.352 -1.126,-3.151 -1.801,-4.728 -0.675,-1.575 -1.8,-2.026 -2.251,-3.826 -0.451,-1.8 -1.126,-2.477 -1.35,-2.926 -0.227,-0.45 -0.678,-2.7 -1.126,-0.226 -0.45,2.476 -1.352,7.202 -1.352,7.202 0,0 -1.801,3.828 -2.476,4.953 -0.675,1.124 -1.35,4.051 -2.475,3.825 -1.126,-0.225 -1.803,1.127 -2.701,0.9 -0.901,-0.226 -2.251,0.226 -2.926,-0.449 -0.675,-0.676 -2.476,-2.476 -3.377,-2.702 -0.9,-0.224 -1.575,-2.024 -2.251,-2.024 -0.677,0 -1.801,-1.577 -1.575,-2.477 0.224,-0.9 0.449,-2.925 0.675,-3.826 0.224,-0.9 1.576,-2.927 1.576,-2.927 0,0 0,-1.35 -1.126,-1.35 -1.125,0 -1.351,0 -3.827,-0.226 -2.475,-0.226 -3.149,-0.45 -4.052,-0.45 -0.898,0 0.902,-0.45 -1.575,0.225 -2.475,0.677 -3.601,2.477 -5.177,4.053 -1.573,1.575 -0.224,1.124 -1.573,1.575 -1.353,0.451 -1.126,-1.126 -2.027,1.351 -0.901,2.476 0.451,3.15 -0.227,3.601 -0.675,0.451 -5.4,-1.575 -5.4,-1.575 0,0 1.125,-0.226 0.224,-1.351 -0.899,-1.126 -1.8,-2.7 -3.149,-2.025 -1.353,0.675 -2.479,1.126 -3.377,2.251 -0.901,1.125 -0.901,2.025 -1.576,2.925 -0.675,0.9 -2.475,0.9 -2.701,1.801 -0.225,0.901 -0.225,3.151 -0.899,3.376 -0.675,0.226 -0.9,-0.898 -1.575,-1.124 -0.675,-0.225 -0.451,-2.026 -0.9,-0.9 -0.45,1.125 -0.9,0.899 -1.575,2.7 -0.677,1.801 -0.901,3.377 -1.576,3.602 -0.675,0.226 0,0.45 -2.027,1.576 -2.024,1.125 -2.475,1.125 -5.4,2.476 -2.925,1.351 -2.25,1.351 -4.276,1.575 -2.025,0.226 -2.477,0.901 -3.827,1.126 -1.352,0.225 -2.25,0.449 -3.602,1.8 -1.35,1.351 -2.475,1.8 -3.375,2.026 -0.9,0.226 -1.76,1.11 -1.76,1.11 z"
             id="path372" />
          <path
             inkscape:connector-curvature="0"
             d="m 686.82,220.96 c -0.899,1.352 -3.825,5.402 -4.95,5.628 -1.126,0.224 -2.252,1.351 -3.152,1.125 -0.9,-0.226 -2.926,0 -3.601,2.926 -0.675,2.926 -1.801,4.502 -2.478,4.276 -0.675,-0.225 1.125,4.276 -2.7,2.477 -3.825,-1.801 -2.475,1.576 -2.926,2.477 -0.45,0.899 0.675,3.376 0.9,4.276 0.227,0.9 0.9,2.476 1.801,3.825 0.9,1.351 1.575,2.926 3.151,2.478 1.576,-0.452 6.526,0 6.526,0 0,0 1.803,0.675 2.927,0.675 1.125,0 1.351,-0.45 2.025,-0.45 0.674,0 2.025,-2.252 1.801,-2.476 -0.225,-0.227 -0.899,-0.901 0.45,-2.252 1.351,-1.351 2.926,-1.8 3.152,-3.376 0.225,-1.575 -0.45,-1.575 0.225,-2.477 0.675,-0.9 2.25,-0.673 1.801,-1.575 -0.451,-0.9 0.449,-0.675 -0.451,-2.477 -0.899,-1.8 -2.026,-2.476 -1.126,-4.727 0.901,-2.25 1.803,-2.701 1.577,-4.051 -0.226,-1.352 1.125,-1.801 -0.451,-3.377 -1.574,-1.574 -2.25,-2.025 -3.376,-2.477 l -1.11,-0.46 z"
             id="path374" />
          <path
             inkscape:connector-curvature="0"
             d="m 730.94,243.47 c 0.902,-0.225 4.052,-2.476 4.278,1.576 0.225,4.051 0.448,2.925 1.801,5.176 1.35,2.251 2.248,2.928 3.824,1.802 1.575,-1.127 3.376,-1.127 3.826,-3.151 0.451,-2.026 0.451,-2.026 1.801,-2.026 1.353,0 1.801,-0.225 2.479,0.677 0.674,0.898 1.122,-0.002 4.05,1.574 2.926,1.576 5.401,1.124 7.204,2.701 1.801,1.575 2.701,1.352 5.176,2.251 2.476,0.9 1.35,-0.45 3.601,2.026 2.252,2.475 1.353,3.15 2.476,4.276 1.125,1.125 2.027,-0.901 1.576,1.8 -0.451,2.701 -3.601,0 1.126,3.825 4.726,3.828 5.402,4.504 6.976,5.628 1.577,1.126 2.702,2.477 1.353,2.477 -1.353,0 -5.628,0 -6.077,-0.676 -0.451,-0.675 -2.476,-1.126 -3.828,-2.701 -1.349,-1.574 -4.275,-2.701 -4.949,-4.051 -0.677,-1.352 -1.577,-1.801 -2.702,-1.801 -1.125,0 -2.25,1.35 -3.827,2.926 -1.576,1.575 -0.898,-0.899 -2.926,-0.225 -2.027,0.676 -4.275,-0.226 -5.402,-1.126 -1.126,-0.9 -0.899,-2.25 -2.699,-1.575 -1.803,0.675 -2.926,0.225 -2.251,-1.125 0.675,-1.352 0.224,-3.152 0.224,-3.152 0,0 0.677,-2.251 -0.898,-2.7 -1.576,-0.449 -1.576,-2.025 -3.152,-2.477 -1.577,-0.449 -4.051,-1.575 -4.051,-1.575 0,0 -0.225,0 -0.901,-0.225 -0.675,-0.226 -0.675,-0.226 -2.476,-0.675 -1.8,-0.451 -3.152,-0.002 -4.051,-1.126 -0.902,-1.125 -0.451,-2.701 -0.451,-2.701 0,0 3.601,0.45 0,-2.251 l -3.601,-2.7 c 0,0 0.448,-0.226 0.224,-0.676 -0.23,-0.46 2.25,-0.01 2.25,-0.01 z"
             id="path376" />
          <path
             inkscape:connector-curvature="0"
             d="m 629.65,224.78 c 0,0 1.125,1.127 2.926,0.901 1.8,-0.226 3.149,3.601 4.277,4.951 1.124,1.351 1.801,2.026 4.276,3.602 2.475,1.575 2.25,-1.351 5.627,3.376 3.376,4.726 1.8,1.801 3.376,4.726 1.575,2.929 2.476,4.503 3.376,5.18 0.899,0.675 1.576,2.474 1.802,3.15 0.224,0.675 1.799,2.7 1.799,3.376 0,0.675 0.451,2.476 -0.899,4.051 -1.351,1.576 -2.477,1.801 -2.477,1.801 0,0 -2.701,-1.351 -3.601,-2.701 -0.901,-1.35 -2.025,-2.476 -3.602,-5.176 -1.575,-2.702 -3.376,-5.628 -4.276,-6.978 -0.9,-1.352 -2.251,-2.703 -2.926,-4.052 -0.675,-1.352 -2.476,-5.402 -3.376,-5.853 -0.9,-0.451 -1.126,-1.8 -2.702,-3.376 -1.574,-1.576 -1.35,-2.926 -2.025,-3.826 -0.675,-0.9 -2.25,-2.928 -2.25,-2.928 l 0.66,-0.22 z"
             id="path378" />
          <path
             inkscape:connector-curvature="0"
             d="m 191.87,400.35 c -1.576,-0.9 -4.952,-2.476 -6.077,-3.376 -1.125,-0.9 -4.501,-5.854 -4.501,-5.854 l -2.477,-4.727 c 0,0 -2.925,-3.601 -2.25,-4.951 0.675,-1.351 2.026,-2.251 2.026,-2.926 0,-0.675 1.35,-2.477 0.224,-3.151 -1.125,-0.676 -1.125,-0.9 -1.801,-2.926 -0.675,-2.025 -0.675,-3.828 -1.575,-4.277 -0.901,-0.449 -1.576,-3.376 -2.476,-3.601 -0.9,-0.226 -1.801,-1.801 -1.801,-1.801 l -1.351,-18.232 c 0,0 -0.451,-8.327 -0.9,-10.129 -0.451,-1.8 0.675,-5.626 -0.451,-9.003 -1.125,-3.376 0.226,-7.427 -0.45,-8.778 -0.675,-1.351 0.45,-5.176 -0.225,-8.777 -0.675,-3.601 2.701,-8.103 0,-9.453 -2.701,-1.352 -0.675,-3.377 -2.926,-3.377 -2.25,0 -3.826,-1.126 -5.852,-2.7 -2.026,-1.576 -5.853,-4.503 -6.978,-5.629 -1.125,-1.124 -4.727,-4.051 -5.852,-4.951 -1.125,-0.9 -2.251,-4.727 -3.151,-5.853 -0.9,-1.124 -1.35,-4.5 -2.701,-6.526 -1.351,-2.025 -3.151,-5.401 -3.602,-6.077 -0.45,-0.675 -5.402,-6.527 -5.402,-6.527 l 0.45,-3.601 c 0,0 3.376,-2.026 2.926,-2.701 -0.45,-0.676 0.226,-1.352 -1.351,-2.701 -1.576,-1.352 -1.351,-3.828 0,-4.952 1.351,-1.127 3.376,-4.728 3.376,-4.728 l 3.376,-5.626 c 0,0 2.702,-2.928 2.702,-4.953 0,-2.025 3.826,-3.375 1.575,-5.176 -2.251,-1.802 -1.125,-3.377 -1.801,-4.728 -0.676,-1.35 -0.225,-2.25 1.801,-3.601 2.026,-1.351 5.627,-6.302 5.627,-6.302 0,0 2.701,-0.676 3.376,-0.676 0.675,0 1.801,-7.204 3.827,-2.477 2.026,4.727 2.701,2.251 2.026,5.627 -0.676,3.376 0.9,2.702 1.8,1.802 0.9,-0.902 -0.451,0.675 1.35,-3.378 1.8,-4.051 1.126,-5.401 2.251,-4.275 1.125,1.126 1.575,1.351 3.601,2.026 2.025,0.675 2.701,0.449 3.375,1.8 0.675,1.351 0.451,-0.45 4.277,0.226 3.826,0.676 9.228,-1.351 8.553,0.899 -0.675,2.251 -2.026,-0.225 1.125,2.251 3.151,2.477 3.602,2.926 5.402,3.377 1.8,0.45 3.376,0.225 6.078,2.926 2.701,2.7 3.376,2.926 4.051,4.275 0.675,1.352 1.8,0.451 2.926,1.801 1.125,1.352 2.701,1.352 4.276,1.352 1.575,0 0,-1.352 2.476,0.45 2.477,1.8 4.277,2.024 5.402,5.626 1.125,3.604 3.376,3.377 1.575,6.979 -1.8,3.602 -5.401,5.177 -3.826,4.952 1.575,-0.226 4.502,-1.577 5.402,-1.351 0.9,0.224 1.35,-0.675 2.701,0 1.351,0.675 1.576,-0.9 1.351,0.675 -0.226,1.576 -0.226,0 -0.226,1.576 0,1.575 -0.45,-1.576 2.251,-0.9 2.701,0.675 1.125,-1.352 4.276,1.575 3.152,2.927 3.152,2.027 4.276,3.602 1.126,1.574 2.251,-0.899 2.927,-0.225 0.676,0.674 2.701,0.224 4.727,0.675 2.026,0.449 0.675,-1.35 3.827,0.675 3.15,2.025 6.302,1.35 6.977,3.151 0.675,1.8 2.477,1.125 3.376,2.251 0.899,1.126 1.35,-0.451 2.251,1.126 0.9,1.574 3.602,1.124 3.151,2.699 -0.451,1.577 0.674,0.676 0.224,2.926 -0.449,2.253 -2.026,5.854 -3.375,6.753 -1.351,0.901 -1.35,2.026 -2.251,3.151 -0.9,1.127 -0.675,-1.125 -1.801,2.026 -1.125,3.152 -0.9,3.602 -1.8,6.527 -0.9,2.925 -0.225,0 -0.9,2.926 -0.675,2.926 -0.225,4.727 -0.9,8.104 -0.675,3.375 -0.45,3.376 -0.9,5.852 -0.45,2.476 1.125,-1.124 -0.901,4.051 -2.025,5.178 -2.25,4.951 -2.925,7.203 -0.676,2.252 0.225,0.45 -2.251,1.801 -2.476,1.352 -1.125,0.9 -4.052,1.801 -2.925,0.9 -6.527,1.802 -7.652,2.026 -1.125,0.224 -5.627,1.575 -4.276,4.275 1.351,2.702 1.351,3.152 0,6.529 -1.351,3.375 -3.376,4.502 -3.376,6.076 0,1.575 -0.901,3.15 -1.125,4.276 -0.226,1.126 2.025,-1.126 -0.675,2.251 -2.701,3.376 -2.926,2.476 -3.827,4.502 -0.9,2.025 0,0.449 -0.9,2.025 -0.9,1.575 -3.151,2.25 -3.151,2.25 0,0 0.224,1.126 -0.676,0.676 -0.901,-0.449 -0.675,0.225 -4.052,-0.676 -3.376,-0.9 -3.826,-3.149 -4.276,-1.575 -0.45,1.575 0.225,2.477 2.251,4.052 2.025,1.576 5.402,2.025 4.501,3.602 -0.9,1.576 -0.9,1.576 -1.575,2.476 -0.676,0.901 0.9,0.225 -0.676,0.901 -1.575,0.675 -2.476,3.602 -3.151,3.602 -0.675,0 -1.126,1.125 -2.026,0.675 -0.9,-0.451 -3.15,-2.026 -3.601,-1.126 -0.45,0.899 -1.351,-1.126 -1.126,2.025 0.226,3.151 0.676,4.952 -0.45,5.628 -1.125,0.675 -3.827,0 -3.827,0 l -0.45,-1.126 -1.575,0.45 c 0,0 -0.675,2.701 0.45,3.151 1.125,0.45 0.9,0.899 2.025,2.25 1.126,1.351 0.451,3.827 0.451,3.827 0,0 0,0.676 -1.125,1.801 -1.125,1.125 -1.576,2.026 -1.801,2.701 -0.226,0.675 -1.576,3.602 0.45,3.376 2.025,-0.226 3.602,-1.351 3.602,2.251 0,3.601 0.9,2.702 -0.225,5.177 -1.126,2.476 -2.026,2.701 -2.251,4.951 -0.224,2.251 0.226,2.476 0.676,3.827 0.45,1.351 1.576,0.675 0.45,1.351 -1.12,0.64 -4.49,-0.03 -4.49,-0.03 z"
             id="path380" />
          <path
             inkscape:connector-curvature="0"
             d="m 133.8,217.13 -1.575,-2.25 c 0,0 -0.675,-1.352 -1.801,-1.576 -1.126,-0.224 -3.602,-3.151 -3.602,-3.151 0,0 -1.125,-0.9 -1.125,-2.475 0,-1.576 -0.901,-4.051 -0.226,-6.752 0.676,-2.7 0.901,-6.077 0.676,-6.978 -0.226,-0.9 1.125,-1.125 -0.45,-2.026 -1.576,-0.9 -4.727,-1.125 -6.753,-1.125 -2.025,0 -4.502,0.676 -4.952,0.9 -0.45,0.225 2.476,-6.752 2.926,-7.877 0.45,-1.125 2.476,-6.078 2.476,-6.752 0,-0.676 0.675,-0.901 -0.675,-1.8 -1.35,-0.901 -3.601,-1.351 -4.952,-0.676 -1.35,0.676 -1.125,-0.9 -2.25,1.8 -1.125,2.702 -2.251,5.628 -3.602,6.078 -1.35,0.451 -4.051,1.801 -4.051,1.801 0,0 -3.376,-0.225 -4.502,-0.45 -1.125,-0.225 -5.852,-2.701 -6.752,-4.276 -0.9,-1.576 -1.35,-4.953 -1.35,-6.527 0,-1.576 2.475,-6.302 2.25,-7.428 -0.225,-1.125 2.477,-5.627 2.251,-6.303 -0.226,-0.675 0.45,-2.926 1.125,-3.826 0.675,-0.9 4.052,-2.026 4.952,-2.926 0.9,-0.901 2.476,-2.025 4.051,-2.476 1.575,-0.451 2.927,-0.9 4.052,-0.9 1.125,0 4.051,-2.476 4.501,0 0.451,2.475 2.477,1.575 3.602,1.8 1.125,0.226 1.351,1.351 3.151,-1.575 1.801,-2.927 3.601,-3.827 3.601,-3.152 0,0.676 2.926,-0.224 3.376,0.451 0.45,0.675 1.351,-0.451 2.926,0.9 1.576,1.351 3.826,1.576 3.601,2.25 -0.225,0.675 0.9,0.675 0.9,1.351 0,0.675 0.901,-1.576 0.901,2.475 0,4.052 1.125,6.528 1.125,6.528 0,0 1.575,3.377 2.25,2.701 0.675,-0.675 2.025,-2.475 2.025,-2.475 0,0 2.251,-1.351 0.676,-6.078 -1.576,-4.726 -0.45,-6.077 -0.9,-7.653 -0.451,-1.576 -0.451,-2.477 2.25,-4.502 2.701,-2.025 9.228,-6.527 10.804,-7.427 1.575,-0.9 5.176,-3.376 5.176,-3.376 0,0 1.35,-0.675 1.576,-2.476 0.225,-1.8 4.501,-4.952 4.727,-5.852 0.226,-0.9 3.152,-3.15 3.152,-3.15 0,0 3.15,-1.802 2.925,-2.926 -0.225,-1.125 4.052,-3.15 4.727,-3.15 0.675,0 4.277,1.124 4.277,-0.902 0,-2.025 0,-2.476 2.251,-4.276 2.25,-1.8 5.176,-4.502 6.302,-4.502 1.125,0 4.952,-2.024 6.527,-2.475 1.576,-0.451 6.528,-2.702 2.026,0 -4.502,2.7 -1.576,1.125 -2.476,3.376 -0.899,2.25 -1.576,5.177 2.701,1.8 4.277,-3.376 4.051,-4.052 5.627,-4.276 1.576,-0.225 0.45,0.675 3.826,-0.451 3.377,-1.125 3.602,-1.575 3.602,-1.575 0,0 1.576,-1.351 0.675,-2.025 -0.9,-0.676 0.901,-1.576 -2.476,-0.226 -3.376,1.351 -3.151,1.576 -5.402,0.9 -2.25,-0.675 -5.627,-0.451 -3.151,-2.702 2.476,-2.25 5.627,-2.926 3.601,-3.826 -2.025,-0.9 -7.202,0.226 -7.877,0.45 -0.676,0.225 -2.251,-0.225 -3.602,0 -1.35,0.225 -0.9,-1.799 0,-2.25 0.901,-0.451 3.827,-1.802 7.428,-2.702 3.601,-0.9 12.38,-1.125 14.405,-1.125 2.025,0 4.726,0.451 6.302,-0.675 1.575,-1.125 4.727,-2.925 5.177,-3.827 0.451,-0.9 2.251,-2.25 2.251,-2.25 0,0 2.025,-2.026 0.9,-2.926 -1.125,-0.9 -2.251,-2.926 -3.151,-2.476 -0.9,0.45 -0.224,3.152 -2.025,0.225 -1.801,-2.925 -1.576,-3.376 -2.476,-4.051 -0.9,-0.675 -1.801,-0.226 -1.125,-3.376 0.675,-3.151 0.45,-4.502 0.45,-4.502 0,0 0.675,-2.7 0,-2.925 -0.676,-0.226 -1.125,-0.9 -2.25,-0.226 -1.126,0.675 -7.428,3.827 -8.778,4.502 -1.351,0.675 -3.152,-2.701 -2.477,-4.276 0.676,-1.577 0.225,-0.676 -0.675,-2.926 -0.9,-2.251 -4.501,-2.702 -5.852,-2.702 -1.351,0 -4.501,-2.026 -5.402,-0.675 -0.9,1.35 -5.626,5.626 -6.528,6.077 -0.9,0.451 -2.25,-3.826 -2.925,3.151 -0.676,6.979 2.476,9.004 -1.125,9.454 -3.601,0.45 -6.753,2.475 -6.753,2.475 0,0 -2.925,0.226 -2.925,2.026 0,1.802 -1.125,6.077 -2.477,6.527 -1.35,0.451 -4.727,-0.224 -5.852,-1.575 -1.125,-1.351 0.225,-6.302 0.225,-6.302 l 2.026,-2.026 c 0,0 -14.405,-2.25 -14.181,-3.151 0.226,-0.9 -4.276,-2.475 -4.726,-3.826 -0.45,-1.351 -0.676,-4.277 -0.225,-5.402 0.45,-1.125 6.527,-6.527 9.678,-7.652 3.151,-1.126 8.553,-3.601 10.129,-4.052 1.576,-0.45 4.276,-0.225 5.177,-1.35 0.9,-1.126 1.125,-3.151 1.125,-3.151 0,0 -0.45,-3.152 0.45,-2.702 0.9,0.451 2.476,1.126 2.701,1.801 0.226,0.675 0.226,2.251 1.801,0.449 1.576,-1.8 3.602,-2.476 5.402,-3.375 1.801,-0.901 4.501,-0.675 6.078,-1.575 1.575,-0.9 4.276,-1.801 4.501,-4.052 0.225,-2.25 -0.675,-1.575 -1.801,-1.801 -1.125,-0.224 0.45,0.226 -3.376,2.026 -3.827,1.8 -2.701,0.45 -5.402,1.8 -2.701,1.351 -2.927,1.576 -3.151,0.451 -0.226,-1.126 0.45,-2.926 0.45,-2.926 0,0 0.226,-0.226 -1.35,-0.675 -1.576,-0.45 -1.576,0.225 -1.801,-1.8 -0.225,-2.026 1.125,-4.952 -1.125,-4.052 -2.251,0.9 -4.276,-0.675 -5.852,3.826 -1.576,4.501 -6.978,9.229 -8.329,8.103 -1.35,-1.125 -1.575,-1.351 -2.701,-1.351 -1.126,0 -2.701,-1.35 -4.727,-1.575 -2.026,-0.225 -8.104,-0.225 -9.678,0 -1.576,0.226 -3.376,-0.9 -4.728,0.451 -1.35,1.35 -3.375,3.151 -3.375,3.827 0,0.675 -2.026,-2.477 -2.701,-2.251 -0.675,0.225 -2.477,-0.9 -4.501,-0.9 -2.026,0 -3.377,-1.126 -4.051,-1.126 -0.675,0 0.674,-1.801 0,-2.026 -0.675,-0.224 -15.307,-0.675 -15.307,-0.675 0,0 -4.726,-1.8 -6.526,-1.575 -1.801,0.225 -6.752,0.449 -10.58,1.125 -3.827,0.675 -9.454,2.926 -11.254,3.151 -1.801,0.226 -5.852,0.226 -6.527,-0.9 -0.676,-1.125 0.225,-0.9 -0.676,-1.125 -0.9,-0.224 -0.224,-0.675 -2.25,-2.25 -2.026,-1.576 0.901,-2.926 -3.151,-2.926 -4.051,0 -6.527,-0.226 -10.128,0 -3.602,0.225 -11.029,2.025 -11.929,1.8 -0.9,-0.225 -8.103,1.126 -9.229,0.451 -1.125,-0.676 -6.753,2.475 -7.877,2.25 -1.125,-0.225 -5.402,0.226 -6.527,0.901 -1.126,0.676 -6.528,2.025 -4.727,3.151 1.8,1.125 1.575,2.25 1.8,2.926 0.226,0.675 -1.8,2.25 -1.8,2.25 0,0 -0.451,0 -2.926,-0.9 -2.476,-0.901 -5.177,-1.35 -6.303,-0.675 -1.125,0.675 -3.151,2.027 -2.701,2.927 0.451,0.9 3.601,2.926 4.052,2.25 0.45,-0.675 1.576,-2.025 2.926,-1.8 1.351,0.226 3.377,-0.9 1.576,1.351 -1.801,2.25 -3.377,3.376 -4.502,3.602 -1.125,0.224 -3.826,0.449 -6.302,0.675 -2.477,0.226 -2.252,-0.9 -4.502,1.351 -2.25,2.25 -3.151,0.9 -3.601,3.376 -0.45,2.475 -0.9,2.475 0,3.151 0.9,0.675 -1.801,0.9 0.225,1.575 2.025,0.676 4.501,1.351 4.276,2.025 -0.226,0.676 2.251,-0.899 0.9,0.9 -1.351,1.802 -2.25,3.376 0.45,1.576 2.701,-1.8 4.276,-0.451 6.527,-1.576 2.251,-1.125 4.502,-1.35 5.852,-2.25 1.351,-0.901 2.026,-2.25 4.052,-2.927 2.026,-0.675 0.675,0.226 0.9,1.351 0.225,1.125 0,1.35 1.351,0.449 1.35,-0.9 1.35,-0.224 3.151,-1.35 1.8,-1.125 3.826,-2.251 5.177,-1.576 1.35,0.676 1.8,0.676 2.701,0.676 0.9,0 -1.125,-0.226 0.9,0 2.026,0.224 -0.9,-0.676 5.852,0.9 6.753,1.575 8.554,0.45 9.003,2.926 0.451,2.476 1.351,-0.226 2.476,1.35 1.125,1.575 1.801,0.226 2.476,2.926 0.675,2.702 0,10.129 -0.45,11.029 -0.45,0.9 -0.675,0.9 -0.45,2.926 0.225,2.025 2.926,11.705 2.026,12.379 -0.9,0.674 -2.926,0.9 -2.926,0.9 l -1.125,4.051 c 0,0 -1.8,3.376 -3.376,5.177 -1.576,1.8 -3.601,4.052 -4.727,5.626 -1.125,1.576 -2.026,4.278 -3.601,5.853 -1.575,1.575 -2.926,0.9 -2.476,4.276 0.45,3.376 0,6.977 0.45,9.454 0.451,2.476 1.576,5.852 2.476,7.203 0.9,1.35 1.576,1.35 3.151,2.475 1.576,1.125 3.602,2.477 3.376,3.602 -0.225,1.125 0.225,8.104 0.225,8.104 0,0 1.351,2.25 1.575,4.726 0.226,2.477 1.801,4.952 1.801,4.952 l 1.351,2.927 c 0,0 0.675,0.226 1.576,2.025 0.9,1.801 0.9,1.801 1.125,2.7 0.226,0.902 0.226,0.676 0.226,0.902 0,0.224 -0.226,-3.827 -0.676,-4.953 -0.45,-1.125 -0.45,-2.475 -0.9,-3.826 -0.45,-1.351 0.225,-2.927 -1.125,-4.952 -1.35,-2.025 -1.35,-2.251 -2.025,-4.277 -0.675,-2.025 -1.576,-4.276 -0.675,-4.727 0.9,-0.449 1.575,-3.375 3.376,0 1.8,3.376 2.026,2.477 2.251,5.178 0.224,2.701 0.9,3.602 1.575,4.726 0.675,1.125 2.25,4.953 3.151,6.527 0.9,1.576 0,-0.9 2.025,2.251 2.026,3.151 2.252,3.826 3.377,6.302 1.125,2.476 1.801,2.476 2.476,4.276 0.675,1.802 0.225,1.351 -0.226,3.376 -0.45,2.025 0.45,4.277 0.45,4.277 0,0 3.151,1.125 3.376,1.8 0.225,0.675 3.376,1.8 3.827,2.701 0.45,0.901 3.376,2.025 3.376,2.025 0,0 2.476,1.576 3.375,2.026 0.901,0.45 3.603,0.901 3.603,0.901 0,0 1.8,0.451 2.475,0.675 0.675,0.225 2.701,0.225 2.701,0.225 0,0 1.801,-1.35 2.476,-0.9 0.675,0.449 2.251,-0.901 2.926,0.224 0.675,1.126 2.026,1.126 2.701,2.027 0.675,0.9 1.35,0.9 2.476,2.025 1.126,1.125 2.251,0.9 3.376,1.8 1.125,0.9 2.025,0.9 3.376,0.9 1.35,0 1.35,0 2.251,0.226 0.899,0.225 1.35,-0.676 2.25,0.451 0.9,1.125 1.575,1.8 2.25,2.925 0.675,1.125 2.251,1.125 2.476,2.926 0.225,1.8 0.675,1.577 0.675,3.151 0,1.576 0.9,2.251 1.576,2.702 0.674,0.449 3.15,2.699 3.15,2.699 l 3.376,0.676 2.701,2.026 2.85,0.9 z"
             id="path382" />
          <path
             inkscape:connector-curvature="0"
             d="m 205.94,8.03 13.505,-1.688 c 0,0 4.726,0 7.09,-1.688 2.363,-1.688 0,-1.688 7.09,-3.038 7.09,-1.351 5.065,-2.026 8.779,-1.351 3.713,0.676 4.726,0.676 8.778,1.351 4.051,0.675 5.064,-0.337 8.777,0.675 3.714,1.013 5.402,0.675 8.441,0.675 h 9.453 c 4.727,0 9.116,-2.701 10.804,-1.013 1.688,1.688 2.701,1.013 8.441,1.688 5.739,0.675 8.103,-0.676 10.466,0 2.364,0.675 6.416,-0.337 11.142,0 4.726,0.337 7.09,-0.337 8.778,-0.337 1.688,0 3.375,-2.364 5.739,-0.338 2.364,2.026 5.402,-0.675 5.739,2.026 0.338,2.701 4.727,0.675 0.338,2.701 -4.389,2.026 -3.714,1.688 -6.753,4.389 -3.038,2.701 2.026,5.064 -4.389,7.428 -6.415,2.363 -7.428,-1.351 -9.116,2.701 -1.688,4.051 0,5.064 -0.337,7.09 -0.338,2.025 -1.013,2.363 -3.039,4.051 -2.025,1.688 -2.025,0 -6.752,1.013 -4.727,1.013 -8.103,2.026 -10.128,2.026 -2.026,0 -6.415,1.688 -7.766,2.363 -1.351,0.676 2.364,1.688 -4.727,3.714 -7.09,2.026 -8.779,1.689 -10.804,4.389 -2.026,2.702 -1.351,3.04 -2.701,4.728 -1.351,1.688 -5.402,8.441 -7.428,6.753 -2.025,-1.688 -3.039,-1.351 -4.727,-3.039 -1.688,-1.688 -2.701,-4.051 -3.714,-5.402 -1.013,-1.351 -1.351,-4.727 -1.688,-6.753 -0.337,-2.026 -3.377,-6.752 0,-6.077 3.376,0.675 5.402,0.338 6.415,-0.337 1.013,-0.676 2.026,-3.039 2.026,-3.039 0,0 -0.337,-3.714 -1.351,-5.74 -1.013,-2.026 -0.337,-3.714 -2.025,-5.739 -1.688,-2.026 -1.688,-1.688 -4.052,-3.714 -2.363,-2.026 -1.688,-3.039 -5.402,-3.376 -3.714,-0.337 -4.727,-1.351 -6.078,-1.013 -1.35,0.337 -5.739,-2.364 -1.013,-2.701 4.727,-0.338 9.116,0.337 9.116,0.337 0,0 6.077,-2.701 4.052,-3.038 -2.025,-0.338 3.038,-3.377 -1.688,-2.364 -4.727,1.013 -10.128,2.364 -11.479,2.701 -1.35,0.337 -4.727,0.675 -8.103,1.688 -3.375,1.013 -7.428,0.676 -9.453,3.039 -2.026,2.363 0,2.701 -2.026,2.363 -2.025,-0.337 1.688,-2.363 -3.038,0 -4.727,2.364 -3.376,2.026 -5.739,1.351 -2.364,-0.675 -4.052,-1.688 -4.052,-1.688 0,0 3.04,-0.338 -1.35,-0.675 -4.389,-0.337 -4.389,-0.337 -6.077,-2.364 -1.688,-2.026 -0.675,-2.026 0.337,-2.701 1,-0.676 1.68,-2.027 1.68,-2.027 z"
             id="path384" />
          <path
             inkscape:connector-curvature="0"
             d="m 198.51,23.223 c -1.688,1.688 -5.74,4.052 -4.726,5.065 1.013,1.013 1.688,4.727 3.714,3.714 2.025,-1.013 -0.338,-4.389 7.427,-1.688 7.766,2.701 7.09,-0.337 8.778,3.714 1.688,4.051 3.038,7.089 2.025,8.103 -1.012,1.013 -1.35,2.026 -4.727,3.039 -3.376,1.013 -4.727,2.364 -2.363,4.051 2.363,1.688 6.753,3.376 8.778,4.39 2.026,1.012 8.103,1.351 5.064,-2.025 -3.039,-3.376 0.675,-4.39 0.675,-4.39 0,0 5.74,4.39 3.715,-0.675 -2.026,-5.064 -3.377,-5.064 -2.026,-5.064 1.351,0 4.051,1.688 4.051,1.688 l 1.351,-2.701 -1.351,-4.389 -4.389,-4.389 c 0,0 3.713,-3.376 -1.351,-4.051 -5.064,-0.675 -4.727,-0.675 -7.428,-2.364 -2.701,-1.688 -3.038,-2.363 -8.103,-1.35 -5.064,1.013 -6.752,1.688 -6.752,1.688 l -2.35,-2.366 z"
             id="path386" />
          <path
             inkscape:connector-curvature="0"
             d="m 123.22,27.275 c 2.026,-2.026 7.428,-6.752 9.454,-5.402 2.025,1.35 5.063,-1.013 7.427,1.013 2.363,2.026 5.064,4.389 7.09,5.064 2.026,0.675 4.389,-1.688 6.415,-0.675 2.025,1.013 9.115,-5.064 7.765,-0.337 -1.351,4.727 1.688,6.077 -2.026,6.415 -3.714,0.338 -7.765,3.039 -9.454,2.026 -1.688,-1.013 -3.039,-2.026 -5.74,-0.675 -2.701,1.35 -1.35,1.35 -4.389,0.675 -3.038,-0.675 -3.713,0.675 -4.388,-0.338 -0.676,-1.012 -2.701,-0.675 -2.364,-3.714 0.337,-3.038 1.35,-2.701 -0.676,-2.701 -2.025,0 -3.713,0.338 -5.064,-0.675 -1.34,-1.013 -4.04,-0.676 -4.04,-0.676 z"
             id="path388" />
        </g>
      </g>
      <g
         style="opacity:0.864952"
         transform="matrix(1.6388763,0,0,1.6132581,958.96976,122.86581)"
         id="g1423">
        <path
           inkscape:connector-curvature="0"
           fill="#f5ff12"
           d="m -1497.8395,-182.08667 c -0.7508,0.72508 -9.1618,-6.53279 -10.2673,-6.17736 -1.1056,0.35898 -2.7803,11.95665 -3.9477,12.08816 -1.1715,0.1315 -3.1846,-11.75762 -4.3272,-12.04196 -1.1385,-0.28434 -7.7428,6.87401 -8.7369,6.33731 -0.99,-0.54025 2.3513,-9.27671 1.8027,-10.19372 -0.5528,-0.91345 -13.1425,-1.34352 -13.4024,-2.36183 -0.2599,-1.02008 11.4141,-3.69647 11.5089,-4.7066 0.095,-1.01048 -7.8376,-6.71833 -7.3838,-7.60406 0.4537,-0.88573 11.0799,2.90635 11.7977,2.12974 0.7177,-0.77697 -1.3984,-10.55058 -0.3094,-10.84345 1.089,-0.29252 7.6314,6.57047 8.7946,6.53742 1.1633,-0.0327 4.6613,-8.63232 5.8494,-8.4315 1.188,0.20081 0.594,9.12316 1.5139,9.71886 0.9199,0.5957 10.0115,-2.23316 10.688,-1.42349 0.6724,0.80966 -5.2141,8.68847 -4.8593,9.62254 0.3547,0.93407 11.1418,1.82513 10.9933,2.79083 -0.1444,0.96571 -13.489,1.37765 -14.0417,2.31279 -0.5569,0.93655 5.082,11.52125 4.3272,12.24632 z"
           id="path2035"
           style="fill:#f5ed12;fill-opacity:1;stroke-width:0.757499;stroke-miterlimit:4.1;stroke-dasharray:none" />
        <path
           inkscape:connector-curvature="0"
           fill="#ffffff"
           stroke-width="7.6925"
           stroke-miterlimit="0.5"
           stroke="#f5ff12"
           d="m -1500.2421,-197.04932 a 12.106458,9.9750135 0 1 1 -24.2123,0 12.106458,9.9750135 0 1 1 24.2123,0 z"
           id="path1305"
           style="stroke-width:0.60693;stroke-miterlimit:4.1;stroke-dasharray:none" />
        <path
           id="path548"
           d="m -1482.5335,-191.52975 c -0.099,0 -0.1977,0.002 -0.2958,0.006 0,-0.002 0,-0.004 0,-0.006 0,-3.8281 -3.3101,-6.93138 -7.3934,-6.93138 -1.3467,0 -2.6092,0.33773 -3.6967,0.92752 -1.0875,-0.58979 -2.3499,-0.92752 -3.6967,-0.92752 -4.0832,0 -7.3934,3.10328 -7.3934,6.93138 0,0.002 0,0.004 0,0.006 -3.9461,0.14556 -7.0977,3.19016 -7.0977,6.92538 0,2.07962 0.9769,3.94527 2.524,5.21573 0.4205,0.34532 0.9599,0.53676 1.5189,0.53676 h 12.0258 v 3.83889 h -5.5631 l 7.9779,12.9546 7.9779,-12.9546 h -5.563 v -3.83889 h 12.0258 c 0.559,0 1.0983,-0.19144 1.5188,-0.53676 1.5471,-1.27046 2.524,-3.13611 2.524,-5.21573 0,-3.8281 -3.3101,-6.93138 -7.3933,-6.93138 z"
           inkscape:connector-curvature="0"
           style="fill:#ffffff;stroke:#6369c7;stroke-width:2.43136;stroke-linecap:round;stroke-linejoin:round;stroke-miterlimit:4.1;stroke-dasharray:none;stroke-opacity:1" />
      </g>
      <text
         transform="rotate(-29.391931)"
         id="text1418"
         y="-827.27728"
         x="-1263.4415"
         style="font-style:normal;font-variant:normal;font-weight:normal;font-stretch:normal;font-size:22.5px;line-height:1.25;font-family:'FiraCode Nerd Font';-inkscape-font-specification:'FiraCode Nerd Font';fill:#000080;fill-opacity:1;stroke:none;stroke-width:0.9375"
         xml:space="preserve"><tspan
           style="font-style:normal;font-variant:normal;font-weight:normal;font-stretch:normal;font-family:'FiraCode Nerd Font';-inkscape-font-specification:'FiraCode Nerd Font';fill:#000080;fill-opacity:1;stroke-width:0.9375"
           y="-827.27728"
           x="-1263.4415"
           id="tspan1416"
           sodipodi:role="line">GSODR</tspan></text>
    </g>
  </g>
  <metadata
     id="metadata207">
    <rdf:RDF>
      <cc:Work>
        <dc:format>image/svg+xml</dc:format>
        <dc:type
           rdf:resource="http://purl.org/dc/dcmitype/StillImage" />
        <cc:license
           rdf:resource="http://creativecommons.org/publicdomain/zero/1.0/" />
        <dc:publisher>
          <cc:Agent
             rdf:about="http://openclipart.org/">
            <dc:title />
          </cc:Agent>
        </dc:publisher>
        <dc:title>GSODR</dc:title>
        <dc:date>2020-04-18</dc:date>
        <dc:description>R package, GSODR, hex sticker</dc:description>
        <dc:source>https://github.com/ropensci/GSODR/blob/master/inst/vector/GSODR-hex.svg</dc:source>
        <dc:creator>
          <cc:Agent>
            <dc:title>Adam H Sparks</dc:title>
          </cc:Agent>
        </dc:creator>
        <dc:subject>
          <rdf:Bag>
            <rdf:li>R</rdf:li>
            <rdf:li>hex-sticker</rdf:li>
            <rdf:li>weather</rdf:li>
            <rdf:li>NCEI</rdf:li>
            <rdf:li>global</rdf:li>
          </rdf:Bag>
        </dc:subject>
        <dc:contributor>
          <cc:Agent>
            <dc:title />
          </cc:Agent>
        </dc:contributor>
        <dc:rights>
          <cc:Agent>
            <dc:title>CC0</dc:title>
          </cc:Agent>
        </dc:rights>
      </cc:Work>
      <cc:License
         rdf:about="http://creativecommons.org/publicdomain/zero/1.0/">
        <cc:permits
           rdf:resource="http://creativecommons.org/ns#Reproduction" />
        <cc:permits
           rdf:resource="http://creativecommons.org/ns#Distribution" />
        <cc:permits
           rdf:resource="http://creativecommons.org/ns#DerivativeWorks" />
      </cc:License>
    </rdf:RDF>
  </metadata>
</svg>
